<?xml version="1.0" encoding="UTF-8" standalone="no"?>
<svg
   width="4083.7773mm"
   height="796.2793mm"
   viewBox="0 0 4083.7773 796.27931"
   overflow="hidden"
   version="1.1"
   id="svg335"
   sodipodi:docname="HumainDesign2.svg"
   inkscape:version="1.1.2 (0a00cf5339, 2022-02-04)"
   xmlns:inkscape="http://www.inkscape.org/namespaces/inkscape"
   xmlns:sodipodi="http://sodipodi.sourceforge.net/DTD/sodipodi-0.dtd"
   xmlns="http://www.w3.org/2000/svg"
   xmlns:svg="http://www.w3.org/2000/svg">
  <sodipodi:namedview
     id="namedview337"
     pagecolor="#ffffff"
     bordercolor="#666666"
     borderopacity="1.0"
     inkscape:pageshadow="2"
     inkscape:pageopacity="0.0"
     inkscape:pagecheckerboard="0"
     showgrid="false"
     inkscape:zoom="0.016196277"
     inkscape:cx="-8211.7637"
     inkscape:cy="8458.7341"
     inkscape:window-width="1920"
     inkscape:window-height="1011"
     inkscape:window-x="0"
     inkscape:window-y="32"
     inkscape:window-maximized="1"
     inkscape:current-layer="svg335"
     showguides="true"
     inkscape:document-units="mm" />
  <defs
     id="defs77">
    <clipPath
       id="clip0">
      <rect
         x="101"
         y="720"
         width="4277"
         height="1842"
         id="rect2" />
    </clipPath>
    <clipPath
       id="clip1">
      <rect
         x="360"
         y="1166"
         width="200"
         height="200"
         id="rect5" />
    </clipPath>
    <clipPath
       id="clip2">
      <rect
         x="360"
         y="1166"
         width="200"
         height="200"
         id="rect8" />
    </clipPath>
    <clipPath
       id="clip3">
      <rect
         x="360"
         y="1166"
         width="200"
         height="200"
         id="rect11" />
    </clipPath>
    <clipPath
       id="clip4">
      <rect
         x="512"
         y="1509"
         width="168"
         height="168"
         id="rect14" />
    </clipPath>
    <clipPath
       id="clip5">
      <rect
         x="512"
         y="1509"
         width="168"
         height="168"
         id="rect17" />
    </clipPath>
    <clipPath
       id="clip6">
      <rect
         x="512"
         y="1509"
         width="168"
         height="168"
         id="rect20" />
    </clipPath>
    <clipPath
       id="clip7">
      <rect
         x="1185"
         y="1493"
         width="184"
         height="184"
         id="rect23" />
    </clipPath>
    <clipPath
       id="clip8">
      <rect
         x="1185"
         y="1493"
         width="184"
         height="184"
         id="rect26" />
    </clipPath>
    <clipPath
       id="clip9">
      <rect
         x="1185"
         y="1493"
         width="184"
         height="184"
         id="rect29" />
    </clipPath>
    <clipPath
       id="clip10">
      <rect
         x="2125"
         y="1464"
         width="231"
         height="230"
         id="rect32" />
    </clipPath>
    <clipPath
       id="clip11">
      <rect
         x="2125"
         y="1464"
         width="231"
         height="230"
         id="rect35" />
    </clipPath>
    <clipPath
       id="clip12">
      <rect
         x="2125"
         y="1464"
         width="231"
         height="230"
         id="rect38" />
    </clipPath>
    <clipPath
       id="clip13">
      <rect
         x="2843"
         y="1500"
         width="193"
         height="194"
         id="rect41" />
    </clipPath>
    <clipPath
       id="clip14">
      <rect
         x="2843"
         y="1500"
         width="193"
         height="194"
         id="rect44" />
    </clipPath>
    <clipPath
       id="clip15">
      <rect
         x="2843"
         y="1500"
         width="193"
         height="194"
         id="rect47" />
    </clipPath>
    <clipPath
       id="clip16">
      <rect
         x="3522"
         y="1493"
         width="195"
         height="196"
         id="rect50" />
    </clipPath>
    <clipPath
       id="clip17">
      <rect
         x="3522"
         y="1493"
         width="195"
         height="196"
         id="rect53" />
    </clipPath>
    <clipPath
       id="clip18">
      <rect
         x="3522"
         y="1493"
         width="195"
         height="196"
         id="rect56" />
    </clipPath>
    <clipPath
       id="clip19">
      <rect
         x="3877"
         y="1464"
         width="259"
         height="259"
         id="rect59" />
    </clipPath>
    <clipPath
       id="clip20">
      <rect
         x="3877"
         y="1464"
         width="259"
         height="259"
         id="rect62" />
    </clipPath>
    <clipPath
       id="clip21">
      <rect
         x="3877"
         y="1464"
         width="259"
         height="259"
         id="rect65" />
    </clipPath>
    <clipPath
       id="clip22">
      <rect
         x="3411"
         y="1149"
         width="115"
         height="116"
         id="rect68" />
    </clipPath>
    <clipPath
       id="clip23">
      <rect
         x="3411"
         y="1149"
         width="115"
         height="116"
         id="rect71" />
    </clipPath>
    <clipPath
       id="clip24">
      <rect
         x="3411"
         y="1149"
         width="115"
         height="116"
         id="rect74" />
    </clipPath>
  </defs>
  <path
     id="cyan"
     style="fill:#00ced1;fill-opacity:1"
     d="m 3433.4668,0 c -175.07,0 -317,66.93 -317,149.5 0,82.57 141.93,149.5 317,149.5 175.07,0 317,-66.93 317,-149.5 0,-82.57 -141.93,-149.5 -317,-149.5 z M 58.855469,505.5 c -22.276,0 -40.333984,18.06007 -40.333984,40.33007 v 161.33985 c 0,22.27 18.057984,40.33008 40.333984,40.33008 H 583.1875 c 22.276,0 40.33399,-18.06008 40.33399,-40.33008 V 545.83007 c 0,-22.27 -18.05799,-40.33007 -40.33399,-40.33007 z M 1419.377,512.56445 c -23.6334,0 -42.791,17.15046 -42.791,38.30859 v 153.25391 c 0,21.15813 19.1576,38.30859 42.791,38.30859 h 900.168 c 23.6334,0 42.791,-17.15046 42.791,-38.30859 V 550.87304 c 0,-21.15813 -19.1576,-38.30859 -42.791,-38.30859 z M 2530.1367,513.5 c -21.0799,0 -38.1699,17.08992 -38.1699,38.16992 v 152.66015 c 0,21.08 17.09,38.16993 38.1699,38.16993 h 429.6602 c 21.08,0 38.1699,-17.08993 38.1699,-38.16993 V 551.66992 c 0,-21.08 -17.0899,-38.16992 -38.1699,-38.16992 z m 640,1 c -21.0799,0 -38.1699,17.08992 -38.1699,38.16992 v 152.66015 c 0,21.08 17.09,38.16993 38.1699,38.16993 h 506.6602 c 21.08,0 38.1699,-17.08993 38.1699,-38.16993 V 552.66992 c 0,-21.08 -17.0899,-38.16992 -38.1699,-38.16992 z" />
  <path
     d="m 731.52213,545.83064 c 0,-22.27 18.058,-40.33 40.334,-40.33 h 455.33607 c 22.27,0 40.33,18.06 40.33,40.33 v 161.34 c 0,22.27 -18.06,40.33 -40.33,40.33 H 771.85613 c -22.276,0 -40.334,-18.06 -40.334,-40.33 z"
     stroke="#66cdaa"
     stroke-width="2.29167"
     stroke-miterlimit="8"
     fill="#66cdaa"
     fill-rule="evenodd"
     id="green" />
  <path
     id="white"
     d="m 3437.8789,120.0371 v 21.60157 c -1.3782,-2.3763 -3.1253,-4.13477 -5.2402,-5.27539 -2.0911,-1.16439 -4.61,-1.7461 -7.5566,-1.7461 -4.8239,0 -8.7572,1.92383 -11.7989,5.77344 -3.0179,3.84961 -4.5273,8.91211 -4.5273,15.18555 0,6.27343 1.5094,11.33398 4.5273,15.18359 3.0417,3.84961 6.975,5.77539 11.7989,5.77539 2.9466,0 5.4655,-0.57031 7.5566,-1.71094 2.1149,-1.16438 3.862,-2.93619 5.2402,-5.3125 V 175.5 h 6.5586 v -55.4629 z m 19.8164,0 V 175.5 h 6.5957 v -5.98829 c 1.3783,2.37631 3.112,4.14812 5.2032,5.3125 2.1149,1.14063 4.6338,1.71094 7.5566,1.71094 4.8477,0 8.7809,-1.92578 11.7988,-5.77539 3.0417,-3.84961 4.5625,-8.91016 4.5625,-15.18359 0,-6.27344 -1.5208,-11.33594 -4.5625,-15.18555 -3.0179,-3.84961 -6.9511,-5.77344 -11.7988,-5.77344 -2.9228,0 -5.4417,0.58171 -7.5566,1.7461 -2.0912,1.14062 -3.8249,2.89909 -5.2032,5.27539 V 120.0371 Z m 131.209,0 V 175.5 h 6.5938 v -19.4961 l 20.2812,19.4961 h 8.5547 l -22.0644,-21.24414 21.1738,-18.67774 h -8.377 l -19.5683,17.2168 V 120.0371 Z m -304.832,2.2461 V 175.5 h 7.1992 v -25.41407 h 21.1016 v -6.05859 h -21.1016 v -15.68359 h 23.3828 v -6.06055 z m 54.4277,12.33398 c -5.9882,0 -10.7522,1.92383 -14.2929,5.77344 -3.517,3.82585 -5.2754,9.00619 -5.2754,15.54102 0,6.32096 1.8535,11.33596 5.5605,15.04296 3.7308,3.70705 8.78,5.56055 15.1485,5.56055 2.5426,0 5.0501,-0.26237 7.5214,-0.78515 2.4714,-0.52279 4.8838,-1.28321 7.2364,-2.28125 v -6.20118 c -2.3288,1.23568 -4.6823,2.16146 -7.0586,2.7793 -2.3526,0.61784 -4.7878,0.92776 -7.3067,0.92773 -4.3486,0 -7.7457,-1.17675 -10.1933,-3.52929 -2.4239,-2.3763 -3.7793,-5.82292 -4.0645,-10.33789 h 30.1563 v -3.20703 c 0,-5.94076 -1.5684,-10.63444 -4.7051,-14.08008 -3.113,-3.4694 -7.3561,-5.20313 -12.7266,-5.20313 z m 44.9141,0 c -5.9883,0 -10.7542,1.92383 -14.2949,5.77344 -3.517,3.82585 -5.2754,9.00619 -5.2754,15.54102 0,6.32096 1.8535,11.33596 5.5605,15.04296 3.7308,3.70705 8.7819,5.56055 15.1504,5.56055 2.5427,0 5.0482,-0.26237 7.5196,-0.78515 2.471,-0.52279 4.8837,-1.28321 7.2363,-2.28125 v -6.20118 c -2.3288,1.23568 -4.6804,2.16146 -7.0567,2.7793 -2.3525,0.61784 -4.7897,0.92776 -7.3086,0.92773 -4.3486,0 -7.7457,-1.17675 -10.1933,-3.52929 -2.4238,-2.3763 -3.7793,-5.82292 -4.0645,-10.33789 h 30.1563 v -3.20703 c 0,-5.94076 -1.5684,-10.63444 -4.7051,-14.08008 -3.113,-3.4694 -7.3542,-5.20313 -12.7246,-5.20313 z m 134.8789,0 c -2.1387,0 -4.3382,0.23763 -6.5957,0.71289 -2.2575,0.4515 -4.5863,1.13965 -6.9863,2.06641 v 6.06055 c 1.9961,-1.0931 4.0757,-1.91439 6.2383,-2.46094 2.1621,-0.54655 4.3847,-0.81836 6.666,-0.81836 3.5882,0 6.3675,0.83073 8.3398,2.49414 1.9961,1.63965 2.9942,3.96843 2.9942,6.98633 v 0.64258 h -9.1954 c -5.9645,0 -10.4567,1.14062 -13.4746,3.42187 -2.9941,2.28125 -4.4902,5.66696 -4.4902,10.15821 0,3.8496 1.1995,6.9274 3.5996,9.23242 2.4238,2.28125 5.6803,3.42187 9.7676,3.42187 3.2318,0 5.9635,-0.57031 8.1972,-1.71094 2.2338,-1.16438 4.0986,-2.95898 5.5958,-5.38281 V 175.5 h 6.5585 v -22.7754 c 0,-6.08332 -1.4257,-10.62304 -4.2773,-13.61718 -2.8516,-2.99414 -7.1631,-4.49024 -12.9375,-4.49024 z m 47.9414,0 c -6.2259,0 -11.1344,1.86491 -14.7227,5.59571 -3.5643,3.73079 -5.3457,8.85221 -5.3457,15.36328 0,6.41601 1.7699,11.51269 5.3106,15.29101 3.5407,3.77832 8.318,5.66797 14.3301,5.66797 2.2099,0 4.2877,-0.21484 6.2363,-0.64258 1.9723,-0.42773 3.8734,-1.06836 5.7031,-1.92382 v -6.06055 c -1.8535,1.02181 -3.7184,1.79365 -5.5957,2.3164 -1.8535,0.49904 -3.7298,0.75001 -5.6308,0.75 -4.2536,0 -7.5577,-1.34407 -9.9102,-4.02929 -2.3525,-2.70899 -3.5273,-6.49772 -3.5273,-11.36914 0,-4.87142 1.1748,-8.65072 3.5273,-11.33594 2.3525,-2.70898 5.6566,-4.0625 9.9102,-4.0625 1.901,0 3.7773,0.26042 5.6308,0.7832 1.8773,0.49903 3.7422,1.25944 5.5957,2.28125 v -6.13086 c -1.806,-0.8317 -3.6709,-1.44954 -5.5957,-1.85351 -1.9248,-0.42774 -3.8961,-0.64063 -5.916,-0.64063 z m -139.5488,5.48828 c 3.4694,0 6.2011,1.37826 8.1972,4.13477 1.9961,2.73275 2.9961,6.51204 2.9961,11.33594 0,4.82389 -1,8.61263 -2.9961,11.36914 -1.996,2.73275 -4.7278,4.09961 -8.1972,4.09961 -3.4694,0 -6.2012,-1.36686 -8.1973,-4.09961 -1.9723,-2.75651 -2.959,-6.54525 -2.959,-11.36914 0,-4.8239 0.9867,-8.60319 2.959,-11.33594 1.9961,-2.75651 4.7279,-4.13477 8.1973,-4.13477 z m 48.7617,0 c 3.4694,0 6.1898,1.37826 8.1621,4.13477 1.9961,2.73275 2.9941,6.51204 2.9941,11.33594 0,4.82389 -0.998,8.61263 -2.9941,11.36914 -1.9723,2.73275 -4.6927,4.09961 -8.1621,4.09961 -3.4694,0 -6.2012,-1.36686 -8.1973,-4.09961 -1.9723,-2.75651 -2.959,-6.54525 -2.959,-11.36914 0,-4.8239 0.9867,-8.60319 2.959,-11.33594 1.9961,-2.75651 4.7279,-4.13477 8.1973,-4.13477 z m -136.875,0.0723 c 3.2318,0 5.8229,1.06836 7.7715,3.20703 1.9723,2.13867 2.9818,5.00164 3.0293,8.58984 l -23.3828,0.0371 c 0.3326,-3.75455 1.5911,-6.66699 3.7773,-8.73437 2.21,-2.06738 5.1452,-3.09961 8.8047,-3.09961 z m 44.9121,0 c 3.2318,0 5.821,1.06836 7.7695,3.20703 1.9724,2.13867 2.9838,5.00164 3.0313,8.58984 l -23.3828,0.0371 c 0.3327,-3.75455 1.5911,-6.66699 3.7773,-8.73437 2.21,-2.06738 5.1452,-3.09961 8.8047,-3.09961 z m 138.9414,15.25586 h 6.5235 v 1.46094 c 0,4.27734 -1.1045,7.71061 -3.3145,10.30078 -2.1862,2.5664 -5.0967,3.84961 -8.7324,3.84961 -2.6377,0 -4.7289,-0.67676 -6.2735,-2.03125 -1.5208,-1.37826 -2.2812,-3.23177 -2.2812,-5.56055 0,-2.92285 1.0208,-4.99121 3.0644,-6.20312 2.0437,-1.21192 5.7146,-1.81641 11.0137,-1.81641 z M 936.16211,598.0371 v 10.40821 h 12.75977 V 598.0371 Z m 645.88289,1 V 654.5 h 12.7597 v -55.4629 z m 371.1308,0 v 10.40821 h 12.7598 V 599.0371 Z M 95.966799,599.32031 c -8.86361,0 -15.88412,2.4847 -21.06445,7.45117 -5.180344,4.94271 -7.771489,11.66667 -7.771489,20.17383 0,8.4834 2.591145,15.20931 7.771489,20.17578 5.18033,4.94271 12.20084,7.41406 21.06445,7.41406 2.97038,0 5.821941,-0.33268 8.554691,-0.99805 2.73274,-0.66536 5.36002,-1.65201 7.8789,-2.95898 v -11.01367 c -2.54264,1.7347 -5.05013,3.00456 -7.52148,3.8125 -2.47136,0.80794 -5.073901,1.21289 -7.806641,1.21289 -4.89519,0 -8.74479,-1.56836 -11.54883,-4.70508 -2.80404,-3.13672 -4.20508,-7.45019 -4.20508,-12.93945 0,-5.51302 1.40104,-9.83789 4.20508,-12.97461 2.80404,-3.13672 6.65364,-4.70508 11.54883,-4.70508 2.73274,0 5.335281,0.40495 7.806641,1.21289 2.47135,0.80794 4.97884,2.0778 7.52148,3.8125 v -11.01367 c -2.51888,-1.30697 -5.14616,-2.29362 -7.8789,-2.95898 -2.73275,-0.66537 -5.584311,-0.99805 -8.554691,-0.99805 z M 2710.4961,600.0371 v 10.40821 h 12.7598 V 600.0371 Z M 783.17578,600.2832 V 653.5 h 14.47071 c 7.98437,0 13.97265,-0.57032 17.96484,-1.71094 3.99219,-1.16439 7.41406,-3.12435 10.26562,-5.88086 2.49512,-2.40007 4.34864,-5.16797 5.56055,-8.30469 1.21192,-3.16048 1.81836,-6.74967 1.81836,-10.76562 0,-3.96843 -0.60644,-7.51953 -1.81836,-10.65625 -1.21191,-3.13672 -3.06543,-5.90658 -5.56055,-8.30664 -2.8278,-2.75651 -6.22492,-4.70508 -10.19336,-5.84571 -3.94465,-1.16439 -9.95768,-1.74609 -18.0371,-1.74609 z m 2504.47462,0.7539 V 656.5 h 12.7598 v -55.4629 z m -1860.5176,0.2461 V 654.5 h 13.7227 v -53.2168 z m -1055.59764,0.96094 v 11.33398 h -6.34375 v 9.125 h 6.34375 v 16.93164 c 0,5.03776 1.04557,8.61361 3.13672,10.72852 2.11491,2.09114 5.69075,3.13672 10.72851,3.13672 h 10.94336 v -9.125 h -6.55859 c -2.1862,0 -3.64811,-0.31934 -4.38477,-0.96094 -0.73665,-0.66537 -1.10351,-1.92578 -1.10351,-3.7793 v -16.93164 h 13.15234 v -9.125 h -13.15234 v -11.33398 z m 2165.22854,0.0391 v 10.37305 h 17.6797 v 42.84375 h 13.7226 v -42.84375 h 17.6446 v -10.37305 z m -701.4648,0.96094 v 11.33398 h -6.3457 v 9.125 h 6.3457 v 16.93164 c 0,5.03776 1.0455,8.61361 3.1367,10.72852 2.1149,2.09114 5.6907,3.13672 10.7285,3.13672 h 10.9434 v -9.125 h -6.5586 c -2.1862,0 -3.6482,-0.31934 -4.3848,-0.96094 -0.7367,-0.66537 -1.1055,-1.92578 -1.1055,-3.7793 v -16.93164 h 13.1543 v -9.125 h -13.1543 v -11.33398 z m 84.1562,0 v 11.33398 h -6.3437 v 9.125 h 6.3437 v 16.93164 c 0,5.03776 1.0456,8.61361 3.1367,10.72852 2.1149,2.09114 5.6908,3.13672 10.7285,3.13672 h 10.9434 v -9.125 h -6.5586 c -2.1862,0 -3.6481,-0.31934 -4.3848,-0.96094 -0.7366,-0.66537 -1.1035,-1.92578 -1.1035,-3.7793 v -16.93164 h 13.1524 v -9.125 h -13.1524 v -11.33398 z m 1263.043,0.0391 v 53.2168 h 13.7226 V 636.3614 h 3.8868 c 2.2337,0 4.0149,0.48666 5.3457,1.46094 1.3544,0.97429 2.6852,2.79362 3.9921,5.45508 l 6.4883,13.22266 h 14.6133 l -7.4492,-15.11329 c -1.5208,-3.06543 -3.0303,-5.34668 -4.5274,-6.84375 -1.4733,-1.52083 -3.1481,-2.49414 -5.0253,-2.92187 3.4218,-1.06934 5.9768,-2.73278 7.664,-4.99023 1.711,-2.25749 2.5664,-5.14519 2.5664,-8.66211 0,-5.08529 -1.6406,-8.80372 -4.9199,-11.15625 -3.2555,-2.35254 -8.3883,-3.5293 -15.3984,-3.5293 z m -505.7227,0.96094 v 11.33398 h -6.3457 v 9.125 h 6.3457 v 16.93164 c 0,5.03776 1.0456,8.61361 3.1367,10.72852 2.1149,2.09114 5.6908,3.13672 10.7286,3.13672 h 10.9433 v -9.125 h -6.5586 c -2.1862,0 -3.6481,-0.31934 -4.3847,-0.96094 -0.7367,-0.66537 -1.1055,-1.92578 -1.1055,-3.7793 V 624.7032 h 13.1543 v -9.125 h -13.1543 v -11.33398 z m -1879.87696,6.41211 h 4.91797 c 5.63183,0 9.92252,1.37825 12.86914,4.13476 2.94661,2.75651 4.41992,6.77149 4.41992,12.04688 0,5.29915 -1.48665,9.33886 -4.45703,12.11914 -2.94662,2.78027 -7.22396,4.17187 -12.83203,4.17187 h -4.91797 z m -654.69922,1.96093 c -6.89128,0 -12.28646,1.85352 -16.18359,5.56055 -3.87338,3.70703 -5.81055,8.83984 -5.81055,15.39844 0,6.55859 1.93717,11.6914 5.81055,15.39843 3.89713,3.70704 9.29231,5.56055 16.18359,5.56055 6.86751,0 12.22461,-1.85351 16.07422,-5.56055 3.87337,-3.70703 5.81055,-8.83984 5.81055,-15.39843 0,-6.5586 -1.93718,-11.69141 -5.81055,-15.39844 -3.84961,-3.70703 -9.20671,-5.56055 -16.07422,-5.56055 z m 57.20898,0 c -2.61393,0 -5.00162,0.55697 -7.16406,1.67383 -2.16243,1.0931 -4.20605,2.80404 -6.13086,5.13281 v -5.8457 h -12.76172 v 39.92188 h 12.76172 V 633.8614 c 0,-3.63574 0.76042,-6.47591 2.28125,-8.51953 1.52084,-2.06738 3.61198,-3.10156 6.27344,-3.10156 1.0931,0 2.06641,0.23763 2.92188,0.71289 0.85546,0.4515 1.53222,1.09408 2.03124,1.92578 0.38021,0.61784 0.64258,1.57975 0.78516,2.88672 0.16634,1.30697 0.25,3.68327 0.25,7.12891 v 14.65039 3.95508 h 12.83203 v -24.3086 c 0,-5.3942 -1.20149,-9.50618 -3.60156,-12.33398 -2.3763,-2.8278 -5.86849,-4.24024 -10.47852,-4.24024 z m 45.91016,0 c -7.20019,0 -12.83301,1.85352 -16.89648,5.56055 -4.06348,3.68327 -6.09375,8.81608 -6.09375,15.39844 0,6.58235 2.03027,11.72656 6.09375,15.43359 4.06347,3.68327 9.69629,5.52539 16.89648,5.52539 2.06738,0 4.1224,-0.1901 6.16602,-0.57031 2.06738,-0.35645 4.09961,-0.90397 6.0957,-1.64063 v -10.44335 c -1.52083,1.16438 -3.18425,2.04264 -4.99023,2.63671 -1.78223,0.59408 -3.67188,0.89258 -5.66797,0.89258 -3.56446,0 -6.34375,-1.03418 -8.33985,-3.10156 -1.97233,-2.09115 -2.95898,-5.00163 -2.95898,-8.73242 0,-3.7308 0.98665,-6.62989 2.95898,-8.69727 1.9961,-2.09114 4.77539,-3.13672 8.33985,-3.13672 1.87727,0 3.68326,0.28516 5.41797,0.85547 1.75846,0.57031 3.50553,1.44857 5.24023,2.63672 v -10.4082 c -2.01986,-0.73666 -4.05208,-1.28223 -6.0957,-1.63867 -2.01986,-0.38021 -4.07487,-0.57032 -6.16602,-0.57032 z m 42.41602,0 c -6.89128,0 -12.30925,1.86491 -16.25391,5.59571 -3.9209,3.73079 -5.88086,8.85221 -5.88086,15.36328 0,6.62988 1.99609,11.78548 5.98828,15.46875 4.01595,3.6595 9.63542,5.49023 16.85938,5.49023 3.0179,0 6.03678,-0.2985 9.05468,-0.89258 3.01791,-0.57031 6.03484,-1.42578 9.05274,-2.5664 v -9.83789 c -2.97038,1.61588 -5.86947,2.82877 -8.69727,3.63672 -2.80403,0.78418 -5.5472,1.17578 -8.23242,1.17578 -3.32682,0 -5.91797,-0.74903 -7.77148,-2.2461 -1.85352,-1.49707 -2.93522,-3.74218 -3.24414,-6.73632 h 29.83593 v -3.63477 c 0,-6.32096 -1.88964,-11.37207 -5.66796,-15.15039 -3.75456,-3.77832 -8.76954,-5.66602 -15.04297,-5.66602 z m 56.35547,0 c -2.78028,0 -5.24024,0.55697 -7.37891,1.67383 -2.13867,1.0931 -4.08724,2.80404 -5.8457,5.13281 v -5.8457 h -12.76172 v 55.10742 h 12.76172 v -20.95898 c 1.75846,2.32877 3.70703,4.0511 5.8457,5.16797 2.13867,1.0931 4.59863,1.64062 7.37891,1.64062 4.91894,0 8.95865,-1.94857 12.11914,-5.8457 3.16048,-3.9209 4.74023,-8.95866 4.74023,-15.11328 0,-6.15462 -1.57975,-11.18099 -4.74023,-15.07813 -3.16049,-3.9209 -7.2002,-5.88086 -12.11914,-5.88086 z m 518.25195,0 c -6.89128,0 -12.30925,1.86491 -16.25391,5.59571 -3.9209,3.73079 -5.88086,8.85221 -5.88086,15.36328 0,6.62988 1.9961,11.78548 5.98828,15.46875 4.01595,3.6595 9.63542,5.49023 16.85938,5.49023 3.0179,0 6.03678,-0.2985 9.05469,-0.89258 3.0179,-0.57031 6.03483,-1.42578 9.05273,-2.5664 v -9.83789 c -2.97038,1.61588 -5.86948,2.82877 -8.69726,3.63672 -2.80404,0.78418 -5.54916,1.17578 -8.23438,1.17578 -3.32682,0 -5.91602,-0.74903 -7.76953,-2.2461 -1.85352,-1.49707 -2.93522,-3.74218 -3.24414,-6.73632 h 29.83398 v -3.63477 c 0,-6.32096 -1.88965,-11.37207 -5.66797,-15.15039 -3.75455,-3.77832 -8.76757,-5.66602 -15.04101,-5.66602 z m 45.69726,0 c -5.98828,0 -10.43294,1.02084 -13.33203,3.06446 -2.89909,2.04362 -4.34765,5.18033 -4.34765,9.41015 0,3.9209 1.14062,6.84473 3.42187,8.76953 2.28125,1.92481 6.26009,3.24219 11.93945,3.95508 l 2.2461,0.28516 c 2.59017,0.30892 4.3125,0.75 5.16797,1.32031 0.87923,0.54655 1.31836,1.38867 1.31836,2.5293 0,1.35449 -0.62924,2.37728 -1.88868,3.0664 -1.25944,0.68913 -3.13573,1.03321 -5.63086,1.03321 -2.75651,0 -5.47884,-0.30795 -8.16406,-0.92578 -2.66146,-0.61784 -5.26204,-1.54558 -7.80468,-2.78125 v 9.69531 c 2.97037,0.8317 5.85611,1.44954 8.66015,1.85351 2.8278,0.42774 5.56152,0.64258 8.19922,0.64258 6.22591,0 10.90625,-1.07031 14.04297,-3.20898 3.13672,-2.13867 4.70703,-5.33431 4.70703,-9.58789 0,-4.06348 -1.12923,-7.04623 -3.38672,-8.94727 -2.25749,-1.90104 -6.65462,-3.2679 -13.18945,-4.09961 l -2.24414,-0.32031 c -2.30502,-0.26139 -3.90951,-0.66439 -4.8125,-1.21094 -0.87923,-0.54655 -1.32031,-1.3317 -1.32032,-2.35351 10e-6,-1.25944 0.58366,-2.18523 1.74805,-2.7793 1.18815,-0.61784 2.99414,-0.92773 5.41797,-0.92774 2.25749,0 4.65658,0.28516 7.19922,0.85547 2.54264,0.57032 5.18131,1.42579 7.91406,2.56641 v -9.69531 c -3.04166,-0.76042 -5.85709,-1.31934 -8.44726,-1.67578 -2.59017,-0.35645 -5.06153,-0.53321 -7.41407,-0.53321 z m 131.45704,0 c -2.6139,0 -5.0036,0.55697 -7.166,1.67383 -2.1624,1.0931 -4.206,2.80404 -6.1308,5.13281 v -5.8457 h -12.7598 v 39.92188 h 12.7598 V 633.8614 c 0,-3.63574 0.7604,-6.47591 2.2812,-8.51953 1.5208,-2.06738 3.612,-3.10156 6.2734,-3.10156 1.0931,0 2.0684,0.23763 2.9239,0.71289 0.8554,0.4515 1.5322,1.09408 2.0312,1.92578 0.3802,0.61784 0.6406,1.57975 0.7832,2.88672 0.1664,1.30697 0.25,3.68327 0.25,7.12891 v 14.65039 3.95508 h 12.8321 v -24.3086 c 0,-5.3942 -1.1996,-9.50618 -3.5997,-12.33398 -2.3763,-2.8278 -5.8684,-4.24024 -10.4785,-4.24024 z m -64.30473,0.0703 c -4.87134,0 -8.89775,1.91243 -12.08199,5.73828 -3.18425,3.80208 -4.77735,8.68587 -4.77735,14.65039 0,5.94075 1.5931,10.83593 4.77735,14.68554 3.18424,3.82585 7.21065,5.73829 12.08199,5.73829 2.7803,0 5.2289,-0.54558 7.3438,-1.63868 2.1149,-1.0931 4.0521,-2.80403 5.8105,-5.13281 v 2.74414 c 0,3.89714 -0.9752,6.76009 -2.9238,8.58985 -1.9486,1.82975 -5.013,2.74609 -9.1953,2.74609 -2.1624,0 -4.3145,-0.32129 -6.45313,-0.96289 -2.13867,-0.61784 -4.32487,-1.56836 -6.55859,-2.85156 v 9.94531 c 2.35253,0.78418 4.69466,1.36588 7.02343,1.74609 2.32879,0.38021 4.73929,0.57031 7.23439,0.57032 7.6992,0 13.5696,-1.69955 17.6094,-5.09766 4.0634,-3.37435 6.09573,-8.26953 6.09573,-14.68555 v -35.89453 h -12.83213 v 5.91797 c -1.7584,-2.35254 -3.6956,-4.07487 -5.8105,-5.16797 -2.1149,-1.0931 -4.5635,-1.64062 -7.3438,-1.64062 z m 2221.02933,0.54101 h 5.7754 c 2.8754,0 4.9304,0.52279 6.166,1.56836 1.2595,1.04557 1.8887,2.7793 1.8887,5.20313 0,2.44759 -0.6292,4.20605 -1.8887,5.27539 -1.2356,1.06933 -3.2906,1.60547 -6.166,1.60547 h -5.7754 z m -2260.05859,0.34961 v 39.92188 h 12.75977 v -39.92188 z m 542.44139,0.0391 c -2.4475,0 -4.6927,0.57032 -6.7363,1.71094 -2.0198,1.14063 -3.8144,2.83822 -5.3828,5.0957 v -5.8457 h -12.832 v 39.92188 h 12.832 v -19.63868 c 0,-3.73079 0.6654,-6.5957 1.9961,-8.59179 1.3307,-2.01986 3.2204,-3.0293 5.668,-3.0293 1.9485,0 3.3021,0.64258 4.0625,1.92578 0.7604,1.25944 1.1406,4.09766 1.1406,8.51758 v 20.81641 h 12.832 v -19.60362 c 0.048,-3.77832 0.7263,-6.66602 2.0332,-8.66211 1.3308,-1.99609 3.2071,-2.99414 5.6309,-2.99414 1.8535,0 3.1956,0.64258 4.0273,1.92578 0.8317,1.25944 1.2481,3.30306 1.2481,6.13086 0,0.61784 -0.011,1.0931 -0.035,1.42578 0,0.33268 -0.011,0.65202 -0.035,0.96094 V 654.5 h 12.832 v -24.3086 c 0,-5.3942 -1.1995,-9.50618 -3.5996,-12.33398 -2.4001,-2.8278 -5.8942,-4.24024 -10.4805,-4.24024 -2.6614,0 -5.11,0.65202 -7.3437,1.95899 -2.21,1.2832 -4.1224,3.16146 -5.7383,5.63281 -1.0931,-2.40007 -2.6976,-4.26497 -4.8125,-5.5957 -2.1149,-1.33073 -4.5501,-1.9961 -7.3067,-1.9961 z m 77.17,0 c -2.7803,0 -5.2383,0.55697 -7.377,1.67383 -2.1387,1.0931 -4.0872,2.80404 -5.8457,5.13281 v -5.8457 h -12.7617 v 55.10742 h 12.7617 v -20.95898 c 1.7585,2.32877 3.707,4.0511 5.8457,5.16797 2.1387,1.0931 4.5967,1.64062 7.377,1.64062 4.9189,0 8.9606,-1.94857 12.1211,-5.8457 3.1604,-3.9209 4.7402,-8.95866 4.7402,-15.11328 0,-6.15462 -1.5798,-11.18099 -4.7402,-15.07813 -3.1605,-3.9209 -7.2022,-5.88086 -12.1211,-5.88086 z m 70.4336,0 c -6.8913,0 -12.3093,1.86491 -16.2539,5.59571 -3.9209,3.73079 -5.8809,8.85221 -5.8809,15.36328 0,6.62988 1.9961,11.78548 5.9883,15.46875 4.0159,3.6595 9.6373,5.49023 16.8613,5.49023 3.0179,0 6.0348,-0.2985 9.0527,-0.89258 3.0179,-0.57031 6.0349,-1.42578 9.0528,-2.5664 v -9.83789 c -2.9704,1.61588 -5.8675,2.82877 -8.6953,3.63672 -2.8041,0.78418 -5.5492,1.17578 -8.2344,1.17578 -3.3268,0 -5.918,-0.74903 -7.7715,-2.2461 -1.8535,-1.49707 -2.9352,-3.74218 -3.2441,-6.73632 h 29.8359 v -3.63477 c 0,-6.32096 -1.8896,-11.37207 -5.668,-15.15039 -3.7545,-3.77832 -8.7695,-5.66602 -15.0429,-5.66602 z m 55.25,0 c -2.4476,0 -4.6927,0.57032 -6.7364,1.71094 -2.0198,1.14063 -3.8144,2.83822 -5.3828,5.0957 v -5.8457 h -12.832 v 39.92188 h 12.832 v -19.63868 c 0,-3.73079 0.6654,-6.5957 1.9961,-8.59179 1.3307,-2.01986 3.2204,-3.0293 5.668,-3.0293 1.9486,0 3.3021,0.64258 4.0625,1.92578 0.7604,1.25944 1.1406,4.09766 1.1406,8.51758 v 20.81641 h 12.832 v -19.60362 c 0.048,-3.77832 0.7263,-6.66602 2.0332,-8.66211 1.3308,-1.99609 3.2071,-2.99414 5.6309,-2.99414 1.8535,0 3.1956,0.64258 4.0273,1.92578 0.8318,1.25944 1.2481,3.30306 1.2481,6.13086 0,0.61784 -0.011,1.0931 -0.035,1.42578 0,0.33268 -0.011,0.65202 -0.035,0.96094 V 654.5 h 12.832 v -24.3086 c 0,-5.3942 -1.2015,-9.50618 -3.6016,-12.33398 -2.3998,-2.8278 -5.8922,-4.24024 -10.4785,-4.24024 -2.6614,0 -5.11,0.65202 -7.3437,1.95899 -2.21,1.2832 -4.1224,3.16146 -5.7383,5.63281 -1.0931,-2.40007 -2.6976,-4.26497 -4.8125,-5.5957 -2.1149,-1.33073 -4.5501,-1.9961 -7.3066,-1.9961 z m 70.3261,0 c -6.8912,0 -12.3092,1.86491 -16.2539,5.59571 -3.9209,3.73079 -5.8808,8.85221 -5.8808,15.36328 0,6.62988 1.9963,11.78548 5.9882,15.46875 4.0162,3.6595 9.6355,5.49023 16.8594,5.49023 3.0179,0 6.0368,-0.2985 9.0547,-0.89258 3.0179,-0.57031 6.0348,-1.42578 9.0527,-2.5664 v -9.83789 c -2.9703,1.61588 -5.8694,2.82877 -8.6972,3.63672 -2.8041,0.78418 -5.5492,1.17578 -8.2344,1.17578 -3.3268,0 -5.916,-0.74903 -7.7695,-2.2461 -1.8535,-1.49707 -2.9352,-3.74218 -3.2442,-6.73632 h 29.834 v -3.63477 c 0,-6.32096 -1.8877,-11.37207 -5.666,-15.15039 -3.7546,-3.77832 -8.7695,-5.66602 -15.043,-5.66602 z m 56.4258,0 c -2.6139,0 -5.0016,0.55697 -7.164,1.67383 -2.1625,1.0931 -4.2061,2.80404 -6.1309,5.13281 v -5.8457 h -12.7617 v 39.92188 h 12.7617 v -19.63868 c 0,-3.63574 0.7604,-6.47591 2.2812,-8.51953 1.5209,-2.06738 3.612,-3.10156 6.2735,-3.10156 1.0931,0 2.0664,0.23763 2.9219,0.71289 0.8554,0.4515 1.5322,1.09408 2.0312,1.92578 0.3802,0.61784 0.6426,1.57975 0.7852,2.88672 0.1663,1.30697 0.25,3.68327 0.25,7.12891 v 14.65039 3.95508 h 12.832 v -24.3086 c 0,-5.3942 -1.2015,-9.50618 -3.6016,-12.33398 -2.3763,-2.8278 -5.8685,-4.24024 -10.4785,-4.24024 z m 77.8125,0 c -2.7565,0 -5.513,0.17676 -8.2695,0.53321 -2.7565,0.33268 -5.5016,0.83268 -8.2344,1.49804 v 9.73047 c 2.0199,-1.0931 4.2061,-1.91243 6.5586,-2.45898 2.3525,-0.54655 4.8942,-0.8203 7.627,-0.82032 3.3743,10e-6 5.859,0.47527 7.4511,1.42579 1.5922,0.92675 2.3887,2.40006 2.3887,4.41992 v 0.99805 h -7.5215 c -6.8913,-10e-6 -11.9538,1.09309 -15.1855,3.27929 -3.208,2.1862 -4.8125,5.61947 -4.8125,10.30078 0,3.84961 1.2851,6.98633 3.8515,9.41016 2.5902,2.40006 5.9512,3.60156 10.086,3.60156 3.0654,0 5.6679,-0.54752 7.8066,-1.64062 2.1387,-1.11687 4.0645,-2.88672 5.7754,-5.31055 v 5.91602 h 12.8672 v -22.7754 c 0,-6.39224 -1.6045,-11.00227 -4.8125,-13.83007 -3.1843,-2.85157 -8.376,-4.27735 -15.5762,-4.27735 z m 111.1738,0 c -6.8912,0 -12.2845,1.85352 -16.1816,5.56055 -3.8734,3.70703 -5.8105,8.83984 -5.8105,15.39844 0,6.55859 1.9371,11.6914 5.8105,15.39843 3.8971,3.70705 9.2904,5.56055 16.1816,5.56055 6.8676,0 12.2266,-1.85351 16.0762,-5.56055 3.8734,-3.70703 5.8106,-8.83984 5.8106,-15.39843 0,-6.5586 -1.9372,-11.69141 -5.8106,-15.39844 -3.8496,-3.70703 -9.2086,-5.56055 -16.0762,-5.56055 z m 57.211,0 c -2.614,0 -5.0016,0.55697 -7.1641,1.67383 -2.1624,1.0931 -4.208,2.80404 -6.1328,5.13281 v -5.8457 h -12.7598 v 39.92188 h 12.7598 v -19.63868 c 0,-3.63574 0.7604,-6.47591 2.2813,-8.51953 1.5208,-2.06738 3.6119,-3.10156 6.2734,-3.10156 1.0931,0 2.0684,0.23763 2.9238,0.71289 0.8555,0.4515 1.5322,1.09408 2.0313,1.92578 0.3802,0.61784 0.6425,1.57975 0.7851,2.88672 0.1664,1.30697 0.2481,3.68327 0.2481,7.12891 v 14.65039 3.95508 h 12.832 v -24.3086 c 0,-5.3942 -1.1995,-9.50618 -3.5996,-12.33398 -2.3763,-2.8278 -5.8685,-4.24024 -10.4785,-4.24024 z m -101.2305,0.96094 v 39.92188 h 12.7598 v -39.92188 z m 648.6035,0.0391 c -6.8912,0 -12.3092,1.86491 -16.2539,5.59571 -3.9209,3.73079 -5.8808,8.85221 -5.8808,15.36328 0,6.62988 1.9961,11.78548 5.9882,15.46875 4.016,3.6595 9.6355,5.49023 16.8594,5.49023 3.0179,0 6.0368,-0.2985 9.0547,-0.89258 3.0179,-0.57031 6.0348,-1.42578 9.0527,-2.5664 v -9.83789 c -2.9703,1.61588 -5.8694,2.82877 -8.6972,3.63672 -2.8041,0.78418 -5.5492,1.17578 -8.2344,1.17578 -3.3268,0 -5.916,-0.74903 -7.7695,-2.2461 -1.8535,-1.49707 -2.9353,-3.74218 -3.2442,-6.73632 h 29.834 v -3.63477 c 0,-6.32096 -1.8896,-11.37207 -5.668,-15.15039 -3.7545,-3.77832 -8.7675,-5.66602 -15.041,-5.66602 z m 45.6973,0 c -5.9883,0 -10.4329,1.02084 -13.332,3.06446 -2.8991,2.04362 -4.3477,5.18033 -4.3477,9.41015 0,3.9209 1.1406,6.84473 3.4219,8.76953 2.2812,1.92481 6.2601,3.24219 11.9394,3.95508 l 2.2461,0.28516 c 2.5902,0.30892 4.3125,0.75 5.168,1.32031 0.8792,0.54655 1.3184,1.38867 1.3184,2.5293 0,1.35449 -0.6293,2.37728 -1.8887,3.0664 -1.2595,0.68913 -3.1358,1.03321 -5.6309,1.03321 -2.7565,0 -5.4788,-0.30795 -8.164,-0.92578 -2.6615,-0.61784 -5.2621,-1.54558 -7.8047,-2.78125 v 9.69531 c 2.9704,0.8317 5.8561,1.44954 8.6601,1.85351 2.8278,0.42774 5.5616,0.64258 8.1992,0.64258 6.2262,0 10.9063,-1.07031 14.043,-3.20898 3.1367,-2.13867 4.707,-5.33431 4.707,-9.58789 0,-4.06348 -1.1292,-7.04623 -3.3867,-8.94727 -2.2575,-1.90104 -6.6546,-3.2679 -13.1894,-4.09961 l -2.2442,-0.32031 c -2.305,-0.26139 -3.9095,-0.66439 -4.8125,-1.21094 -0.8792,-0.54655 -1.3203,-1.3317 -1.3203,-2.35351 0,-1.25944 0.5837,-2.18523 1.7481,-2.7793 1.1881,-0.61784 2.9941,-0.92773 5.4179,-0.92774 2.2575,0 4.6566,0.28516 7.1993,0.85547 2.5426,0.57032 5.1813,1.42579 7.914,2.56641 v -9.69531 c -3.0416,-0.76042 -5.8571,-1.31934 -8.4472,-1.67578 -2.5902,-0.35645 -5.0616,-0.53321 -7.4141,-0.53321 z m 114.0977,0 c -2.6142,0 -5.0017,0.55697 -7.1641,1.67383 -2.1624,1.0931 -4.208,2.80404 -6.1328,5.13281 v -5.8457 h -12.7598 v 39.92188 h 12.7598 v -19.63868 c 0,-3.63574 0.7604,-6.47591 2.2812,-8.51953 1.5209,-2.06738 3.612,-3.10156 6.2735,-3.10156 1.0931,0 2.0683,0.23763 2.9238,0.71289 0.8555,0.4515 1.5322,1.09408 2.0312,1.92578 0.3802,0.61784 0.6426,1.57975 0.7852,2.88672 0.1663,1.30697 0.248,3.68327 0.248,7.12891 v 14.65039 3.95508 h 12.8321 v -24.3086 c 0,-5.3942 -1.1996,-9.50618 -3.5996,-12.33398 -2.3763,-2.8278 -5.8685,-4.24024 -10.4785,-4.24024 z m 39.9218,0.0703 c -4.8714,0 -8.8997,1.91243 -12.084,5.73828 -3.1842,3.80208 -4.7754,8.68587 -4.7754,14.65039 0,5.94075 1.5912,10.83593 4.7754,14.68554 3.1843,3.82585 7.2126,5.73829 12.084,5.73829 2.7803,0 5.2269,-0.54558 7.3418,-1.63868 2.1149,-1.0931 4.0521,-2.80403 5.8106,-5.13281 v 2.74414 c 0,3.89714 -0.9733,6.76009 -2.9219,8.58985 -1.9486,1.82975 -5.015,2.74609 -9.1973,2.74609 -2.1624,0 -4.3125,-0.32129 -6.4511,-0.96289 -2.1387,-0.61784 -4.3249,-1.56836 -6.5586,-2.85156 v 9.94531 c 2.3525,0.78418 4.6927,1.36588 7.0214,1.74609 2.3288,0.38021 4.7413,0.5703 7.2364,0.57032 7.6992,0 13.5677,-1.69955 17.6074,-5.09766 4.0635,-3.37435 6.0957,-8.26953 6.0957,-14.68555 v -35.89453 h -12.832 v 5.91797 c -1.7585,-2.35254 -3.6957,-4.07487 -5.8106,-5.16797 -2.1149,-1.0931 -4.5615,-1.64062 -7.3418,-1.64062 z m -91,0.89062 v 39.92188 h 12.7598 v -39.92188 z m 546.7852,0.0391 c -6.8913,0 -12.3093,1.86491 -16.2539,5.59571 -3.9209,3.73079 -5.8828,8.85221 -5.8828,15.36328 0,6.62988 1.9961,11.78548 5.9882,15.46875 4.016,3.6595 9.6374,5.49023 16.8614,5.49023 3.0179,0 6.0348,-0.2985 9.0527,-0.89258 3.0179,-0.57031 6.0368,-1.42578 9.0547,-2.5664 v -9.83789 c -2.9704,1.61588 -5.8695,2.82877 -8.6973,3.63672 -2.804,0.78418 -5.5491,1.17578 -8.2343,1.17578 -3.3269,0 -5.918,-0.74903 -7.7715,-2.2461 -1.8535,-1.49707 -2.9333,-3.74218 -3.2422,-6.73632 h 29.834 v -3.63477 c 0,-6.32096 -1.8897,-11.37207 -5.668,-15.15039 -3.7546,-3.77832 -8.7676,-5.66602 -15.041,-5.66602 z m 74.5312,0 c -6.8912,0 -12.3092,1.86491 -16.2539,5.59571 -3.9209,3.73079 -5.8808,8.85221 -5.8808,15.36328 0,6.62988 1.9961,11.78548 5.9882,15.46875 4.016,3.6595 9.6355,5.49023 16.8594,5.49023 3.0179,0 6.0368,-0.2985 9.0547,-0.89258 3.0179,-0.57031 6.0348,-1.42578 9.0527,-2.5664 v -9.83789 c -2.9703,1.61588 -5.8694,2.82877 -8.6972,3.63672 -2.8041,0.78418 -5.5472,1.17578 -8.2324,1.17578 -3.3269,0 -5.918,-0.74903 -7.7715,-2.2461 -1.8535,-1.49707 -2.9352,-3.74218 -3.2442,-6.73632 h 29.836 v -3.63477 c 0,-6.32096 -1.8897,-11.37207 -5.668,-15.15039 -3.7546,-3.77832 -8.7695,-5.66602 -15.043,-5.66602 z m 47.3731,0 c -2.7565,0 -5.513,0.17676 -8.2696,0.53321 -2.7565,0.33268 -5.5016,0.83268 -8.2343,1.49804 v 9.73047 c 2.0198,-1.0931 4.206,-1.91243 6.5586,-2.45898 2.3525,-0.54655 4.8942,-0.82029 7.6269,-0.82032 3.3744,1e-5 5.8591,0.47527 7.4512,1.42579 1.5921,0.92675 2.3867,2.40006 2.3867,4.41992 v 0.99805 h -7.5195 c -6.8913,-1e-5 -11.9538,1.09309 -15.1856,3.27929 -3.208,2.1862 -4.8125,5.61947 -4.8125,10.30078 0,3.84961 1.2832,6.98633 3.8496,9.41016 2.5902,2.40006 5.9532,3.60156 10.0879,3.60156 3.0655,0 5.668,-0.54752 7.8067,-1.64062 2.1386,-1.11687 4.0625,-2.88672 5.7734,-5.31055 v 5.91602 h 12.8692 v -22.7754 c 0,-6.39224 -1.6045,-11.00227 -4.8126,-13.83007 -3.1839,-2.85157 -8.3759,-4.27735 -15.5761,-4.27735 z m 47.584,0 c -5.9883,0 -10.431,1.02084 -13.3301,3.06446 -2.8991,2.04362 -4.3496,5.18033 -4.3496,9.41015 0,3.9209 1.1407,6.84473 3.4218,8.76953 2.2816,1.92481 6.2621,3.24219 11.9415,3.95508 l 2.2461,0.28516 c 2.5898,0.30892 4.3124,0.75 5.1679,1.32031 0.8793,0.54655 1.3184,1.38867 1.3184,2.5293 0,1.35449 -0.6293,2.37728 -1.8887,3.0664 -1.2594,0.68913 -3.1357,1.03321 -5.6309,1.03321 -2.7565,0 -5.4788,-0.30795 -8.164,-0.92578 -2.6615,-0.61784 -5.2621,-1.54558 -7.8047,-2.78125 v 9.69531 c 2.9704,0.8317 5.8561,1.44954 8.6602,1.85351 2.8278,0.42774 5.5615,0.64258 8.1992,0.64258 6.2259,0 10.9062,-1.07031 14.0429,-3.20898 3.1368,-2.13867 4.7051,-5.33431 4.7051,-9.58789 0,-4.06348 -1.1273,-7.04623 -3.3847,-8.94727 -2.2575,-1.90104 -6.6547,-3.2679 -13.1895,-4.09961 l -2.2461,-0.32031 c -2.305,-0.26139 -3.9075,-0.66439 -4.8105,-1.21094 -0.8793,-0.54655 -1.3204,-1.3317 -1.3204,-2.35351 0,-1.25944 0.5837,-2.18523 1.7481,-2.7793 1.1881,-0.61784 2.9941,-0.92773 5.418,-0.92774 2.2574,0 4.6565,0.28516 7.1992,0.85547 2.5426,0.57032 5.1813,1.42579 7.914,2.56641 v -9.69531 c -3.0416,-0.76042 -5.859,-1.31934 -8.4492,-1.67578 -2.5901,-0.35645 -5.0615,-0.53321 -7.414,-0.53321 z m 47.2656,0 c -6.8913,0 -12.3093,1.86491 -16.2539,5.59571 -3.9209,3.73079 -5.8809,8.85221 -5.8809,15.36328 0,6.62988 1.9961,11.78548 5.9883,15.46875 4.016,3.6595 9.6354,5.49023 16.8594,5.49023 3.0179,0 6.0348,-0.2985 9.0527,-0.89258 3.0179,-0.57031 6.0368,-1.42578 9.0547,-2.5664 v -9.83789 c -2.9704,1.61588 -5.8695,2.82877 -8.6973,3.63672 -2.804,0.78418 -5.5491,1.17578 -8.2343,1.17578 -3.3269,0 -5.9161,-0.74903 -7.7696,-2.2461 -1.8535,-1.49707 -2.9352,-3.74218 -3.2441,-6.73632 h 29.834 v -3.63477 c 0,-6.32096 -1.8897,-11.37207 -5.668,-15.15039 -3.7546,-3.77832 -8.7676,-5.66602 -15.041,-5.66602 z m -3186.37114,5.48242 c 2.28125,0 4.12338,0.74903 5.52539,2.2461 1.42579,1.47331 2.13868,3.42187 2.13868,5.8457 h -16.57618 c 0.38021,-2.61393 1.34408,-4.61002 2.88868,-5.98828 1.54459,-1.40202 3.55208,-2.10352 6.02343,-2.10352 z m 574.60547,0 c 2.28125,0 4.12337,0.74903 5.52539,2.2461 1.42578,1.47331 2.13868,3.42187 2.13867,5.8457 h -16.57421 c 0.3802,-2.61393 1.34213,-4.61002 2.88671,-5.98828 1.5446,-1.40202 3.55209,-2.10351 6.02344,-2.10352 z m -720.07031,0.64258 c 2.78027,0 4.9056,1.02084 6.37891,3.06446 1.4733,2.01985 2.21093,4.94368 2.21093,8.76953 0,3.82584 -0.73763,6.75911 -2.21093,8.80273 -1.47331,2.01986 -3.59864,3.03125 -6.37891,3.03125 -2.8278,0 -4.99121,-1.01139 -6.48828,-3.03125 -1.47331,-2.04362 -2.20899,-4.97689 -2.20899,-8.80273 0,-3.82585 0.73568,-6.74968 2.20899,-8.76953 1.49707,-2.04362 3.66048,-3.06446 6.48828,-3.06446 z m 197.14844,0.14258 c 2.73274,0 4.8125,0.99805 6.23828,2.99414 1.44954,1.9961 2.17383,4.89518 2.17383,8.69727 0,3.80208 -0.72429,6.70117 -2.17383,8.69726 -1.42578,1.9961 -3.50554,2.99414 -6.23828,2.99414 -2.73275,0 -4.83529,-0.99804 -6.3086,-2.99414 -1.44954,-2.01985 -2.17382,-4.91894 -2.17382,-8.69726 0,-3.77832 0.72428,-6.66602 2.17382,-8.66211 1.47331,-2.01986 3.57585,-3.0293 6.3086,-3.0293 z m 640.58591,0 c 2.6615,0 4.7279,0.97331 6.2012,2.92188 1.4733,1.94856 2.2109,4.70507 2.2109,8.26953 0,3.54069 -0.7376,6.2858 -2.2109,8.23437 -1.4733,1.94857 -3.5397,2.92188 -6.2012,2.92188 -2.7327,0 -4.8125,-0.93718 -6.2383,-2.81446 -1.4257,-1.90104 -2.13863,-4.68229 -2.13863,-8.34179 0,-3.56446 0.73563,-6.32097 2.20903,-8.26953 1.4733,-1.94857 3.5302,-2.92188 6.1679,-2.92188 z m 646.20313,0.21484 c 2.2815,0 4.1234,0.74903 5.5254,2.2461 1.4258,1.47331 2.1387,3.42187 2.1387,5.8457 h -16.5742 c 0.3802,-2.61393 1.3421,-4.61002 2.8867,-5.98828 1.5446,-1.40202 3.5521,-2.1035 6.0234,-2.10352 z m 125.5762,0 c 2.2813,0 4.1234,0.74903 5.5254,2.2461 1.4258,1.47331 2.1367,3.42187 2.1367,5.8457 h -16.5742 c 0.3802,-2.61393 1.3421,-4.61002 2.8867,-5.98828 1.5446,-1.40202 3.5541,-2.1035 6.0254,-2.10352 z m 245.4824,0.64258 c 2.7803,0 4.9076,1.02084 6.3809,3.06446 1.4733,2.01985 2.2109,4.94368 2.2109,8.76953 0,3.82584 -0.7376,6.75911 -2.2109,8.80273 -1.4733,2.01986 -3.6006,3.03125 -6.3809,3.03125 -2.8278,0 -4.9892,-1.01139 -6.4863,-3.03125 -1.4733,-2.04362 -2.209,-4.97689 -2.209,-8.80273 0,-3.82585 0.7357,-6.74968 2.209,-8.76953 1.4971,-2.04362 3.6585,-3.06446 6.4863,-3.06446 z m -446.1621,0.14258 c 2.7328,0 4.8125,0.99805 6.2383,2.99414 1.4496,1.9961 2.1738,4.89518 2.1738,8.69727 0,3.80208 -0.7242,6.70117 -2.1738,8.69726 -1.4258,1.9961 -3.5055,2.99414 -6.2383,2.99414 -2.7327,0 -4.8353,-0.99804 -6.3086,-2.99414 -1.4495,-2.01985 -2.1738,-4.91894 -2.1738,-8.69726 0,-3.77832 0.7243,-6.66602 2.1738,-8.66211 1.4733,-2.01986 3.5759,-3.0293 6.3086,-3.0293 z m 1050.6739,0.21484 c 2.2812,0 4.1233,0.74903 5.5254,2.2461 1.4257,1.47331 2.1386,3.42187 2.1386,5.8457 h -16.5742 c 0.3802,-2.61393 1.3421,-4.61002 2.8867,-5.98828 1.5446,-1.40202 3.5521,-2.1035 6.0235,-2.10352 z m 204.5293,0.78516 c 2.6614,0 4.7278,0.97331 6.2011,2.92188 1.4733,1.94856 2.211,4.70507 2.211,8.26953 0,3.54069 -0.7377,6.2858 -2.211,8.23437 -1.4733,1.94857 -3.5397,2.92188 -6.2011,2.92188 -2.7328,0 -4.8125,-0.93718 -6.2383,-2.81446 -1.4258,-1.90104 -2.1387,-4.68229 -2.1387,-8.34179 0,-3.56446 0.7376,-6.32097 2.2109,-8.26953 1.4734,-1.94857 3.5284,-2.92188 6.1661,-2.92188 z m 450.9726,0.21484 c 2.2813,0 4.1234,0.74903 5.5254,2.2461 1.4258,1.47331 2.1387,3.42187 2.1387,5.8457 h -16.5742 c 0.3802,-2.61393 1.3421,-4.61002 2.8867,-5.98828 1.5446,-1.40202 3.5521,-2.10349 6.0234,-2.10352 z m 74.5332,0 c 2.2813,0 4.1234,0.74903 5.5254,2.2461 1.4258,1.47331 2.1387,3.42187 2.1387,5.8457 h -16.5762 c 0.3802,-2.61393 1.3441,-4.61002 2.8887,-5.98828 1.5446,-1.40202 3.5521,-2.10349 6.0234,-2.10352 z m 142.2207,0 c 2.2813,0 4.1234,0.74903 5.5254,2.2461 1.4258,1.47331 2.1387,3.42187 2.1387,5.8457 h -16.5742 c 0.3802,-2.61393 1.3421,-4.61002 2.8867,-5.98828 1.5446,-1.40202 3.5521,-2.10349 6.0234,-2.10352 z m -1587.0508,12.43555 h 6.6309 v 1.46289 c 0,2.59017 -0.8213,4.75163 -2.4609,6.48633 -1.6397,1.71094 -3.6586,2.56641 -6.0586,2.56641 -1.9248,0 -3.4343,-0.45052 -4.5274,-1.35352 -1.0693,-0.92676 -1.6035,-2.19857 -1.6035,-3.81445 0,-1.75847 0.6654,-3.08919 1.9961,-3.99219 1.3545,-0.90299 3.362,-1.35547 6.0234,-1.35547 z m 1493.1641,2 h 6.6289 v 1.46289 c 0,2.59017 -0.8193,4.75163 -2.459,6.48633 -1.6396,1.71094 -3.6585,2.56641 -6.0586,2.56641 -1.9248,0 -3.4342,-0.45052 -4.5273,-1.35352 -1.0693,-0.92676 -1.6035,-2.19857 -1.6035,-3.81445 0,-1.75847 0.6653,-3.08919 1.9961,-3.99219 1.3545,-0.90299 3.3619,-1.35547 6.0234,-1.35547 z"
     style="fill:#ffffff" />
  <path
     id="black"
     d="m 3791.2149,127.8789 -41.25,20.625 41.25,20.625 v -13.75 h 36.0683 v -13.75 h -36.0683 z M 992.65237,141.625 v 15.51562 h 13.75003 V 155.375 h 25.7304 v -13.75 z m 53.23043,0 v 13.75 h 41.25 v -13.75 z m 55,0 v 13.75 h 41.25 v -13.75 z m 55,0 v 13.75 h 41.25 v -13.75 z m 55,0 v 13.75 h 41.25 v -13.75 z m 55,0 v 13.75 h 41.25 v -13.75 z m 55,0 v 13.75 h 41.25 v -13.75 z m 55,0 v 13.75 h 41.25 v -13.75 z m 55,0 v 13.75 h 41.25 v -13.75 z m 55,0 v 13.75 h 41.25 v -13.75 z m 55,0 v 13.75 h 41.25 v -13.75 z m 55,0 v 13.75 h 41.25 v -13.75 z m 55,0 v 13.75 h 41.25 v -13.75 z m 55,0 v 13.75 h 41.25 v -13.75 z m 55,0 v 13.75 h 41.25 v -13.75 z m 55,0 v 13.75 h 41.25 v -13.75 z m 55,0 v 13.75 h 41.25 v -13.75 z m 55,0 v 13.75 h 41.25 v -13.75 z m 55,0 v 13.75 h 41.25 v -13.75 z m 55,0 v 13.75 h 41.25 v -13.75 z m 55,0 v 13.75 h 41.25 v -13.75 z m 55,0 v 13.75 h 41.25 v -13.75 z m 55,0 v 13.75 h 41.25 v -13.75 z m 55,0 v 13.75 h 41.25 v -13.75 z m 55,0 v 13.75 h 41.25 v -13.75 z m 55,0 v 13.75 h 41.25 v -13.75 z m 55,0 v 13.75 h 41.25 v -13.75 z m 55,0 v 13.75 h 41.25 v -13.75 z m 55,0 v 13.75 h 41.25 v -13.75 z m 55,0 v 13.75 h 41.25 v -13.75 z m 55,0 v 13.75 h 41.25 v -13.75 z m 55,0 v 13.75 h 41.25 v -13.75 z m 55,0 v 13.75 h 41.25 v -13.75 z m 55,0 v 13.75 h 41.25 v -13.75 z m 55,0 v 13.75 h 41.25 v -13.75 z m 55,0 v 13.75 h 41.25 v -13.75 z m 55,0 v 13.75 h 41.25 v -13.75 z m 54.17,0 v 13.75 h 41.25 v -13.75 z m 55,0 v 13.75 h 41.25 v -13.75 z m 760.9804,0.004 v 13.75 h 41.25 v -13.75 z m 55,0 v 13.75 h 41.25 v -13.75 z m 55,0 v 13.75 h 12.5996 v 14.90235 h 13.75 V 141.629 Z M 992.65237,170.89072 v 41.25 h 13.75003 v -41.25 z m 2970.98043,13.14063 v 41.25 h 13.75 v -41.25 z m -567.8222,22.82226 c -2.2402,0.022 -4.0503,1.83402 -4.0723,4.07422 v 49.44336 c -0.02,2.2294 1.7705,4.05236 4,4.07227 0.024,2e-4 0.048,1.9e-4 0.072,0 h 44.7773 l 16.2774,16.64062 V 264.5626 h 12.2187 c 2.2402,-0.022 4.0521,-1.83402 4.0742,-4.07422 v -49.44336 c 0.028,-2.2824 -1.7978,-4.15791 -4.08,-4.19141 z m 34.0215,14.38672 h 5.2832 v 11.5625 h 11.5625 v 5.2793 h -11.5625 v 11.5625 h -5.2832 v -11.5625 h -11.5606 v -5.28125 h 11.5606 z m -2437.17973,4.65039 v 41.25 h 13.75003 v -41.25 z m -671.63088,5.63086 c -18.318,0 -33.16602,14.84992 -33.16602,33.16992 0,18.32 14.84802,33.16016 33.16602,33.16016 18.317,0 33.16796,-14.84016 33.16796,-33.16016 0,-18.32 -14.85096,-33.16992 -33.16796,-33.16992 z m 3642.61131,7.50977 v 41.25 h 13.75 v -41.25 z M 142.36133,252.71289 V 294.5 h 4.94141 V 252.71289 Z M 0,254.40625 V 294.5 h 11.144531 c 7.734376,0 13.427735,-1.61882 17.080079,-4.85938 3.652344,-3.24056 5.478515,-8.31771 5.478515,-15.22852 0,-6.87499 -1.816731,-11.92382 -5.451172,-15.14648 -3.63444,-3.24056 -9.337236,-4.85937 -17.107422,-4.85937 z m 5.425781,4.45703 h 6.552735 c 5.532227,0 9.57845,1.25325 12.138672,3.75976 2.578125,2.48861 3.867187,6.41799 3.867187,11.78906 0,5.40693 -1.289062,9.36459 -3.867187,11.8711 -2.560222,2.50651 -6.606445,3.75976 -12.138672,3.75976 H 5.425781 Z m 49.306641,4.83398 c -4.511719,0 -8.101888,1.45117 -10.769531,4.35156 -2.64974,2.88249 -3.974606,6.78549 -3.97461,11.70899 0,4.76237 1.396485,8.53906 4.189454,11.33203 2.810872,2.79297 6.615885,4.18945 11.414062,4.18945 1.91569,0 3.804036,-0.19596 5.666016,-0.58984 1.861978,-0.39389 3.67871,-0.9668 5.451172,-1.71875 v -4.67383 c -1.754558,0.93099 -3.526042,1.63021 -5.316407,2.0957 -1.77246,0.4655 -3.608072,0.69727 -5.505859,0.69727 -3.276367,0 -5.837565,-0.88574 -7.681641,-2.6582 -1.826172,-1.79037 -2.845699,-4.38738 -3.060547,-7.78907 h 22.71875 v -2.41601 c 10e-7,-4.47591 -1.18164,-8.01139 -3.544921,-10.60742 -2.345378,-2.61394 -5.539714,-3.92188 -9.585938,-3.92188 z m 66.386718,0 c -4.51172,0 -8.10188,1.45117 -10.76953,4.35156 -2.64974,2.88249 -3.97461,6.78549 -3.97461,11.70899 0,4.76237 1.39648,8.53906 4.18945,11.33203 2.81087,2.79297 6.61589,4.18945 11.41407,4.18945 1.91569,0 3.80404,-0.19596 5.66601,-0.58984 1.86198,-0.39389 3.67871,-0.9668 5.45117,-1.71875 v -4.67383 c -1.75455,0.93099 -3.52604,1.63021 -5.3164,2.0957 -1.77246,0.4655 -3.60807,0.69727 -5.50586,0.69727 -3.27637,0 -5.83757,-0.88574 -7.68164,-2.6582 -1.82618,-1.79037 -2.8457,-4.38738 -3.06055,-7.78907 H 134.25 v -2.41601 c 0,-4.47591 -1.18164,-8.01139 -3.54492,-10.60742 -2.34538,-2.61394 -5.53972,-3.92188 -9.58594,-3.92188 z m 48.17774,0 c -4.31478,0 -7.69759,1.39648 -10.15039,4.18945 -2.4349,2.79297 -3.65235,6.66016 -3.65235,11.60157 0,4.9235 1.21745,8.79069 3.65235,11.60156 2.4528,2.79297 5.83561,4.18945 10.15039,4.18945 4.29687,0 7.6722,-1.39648 10.125,-4.18945 2.4528,-2.81087 3.67968,-6.67806 3.67968,-11.60156 0,-4.94141 -1.22688,-8.8086 -3.67968,-11.60157 -2.4528,-2.79297 -5.82813,-4.18945 -10.125,-4.18945 z m 36.38867,0 c -2.20216,0 -4.09994,0.43913 -5.69336,1.31641 -1.57552,0.85937 -2.88151,2.18424 -3.91992,3.97461 v -4.56641 h -4.96875 v 41.51953 h 4.96875 v -15.95312 c 1.03841,1.79036 2.3444,3.12468 3.91992,4.00195 1.59342,0.85938 3.4912,1.28906 5.69336,1.28906 3.65234,0 6.61686,-1.44921 8.89062,-4.34961 2.29167,-2.90039 3.4375,-6.71484 3.4375,-11.4414 0,-4.72656 -1.14583,-8.53906 -3.4375,-11.43946 -2.27376,-2.90039 -5.23828,-4.35156 -8.89062,-4.35156 z m 33.11328,0 c -4.51172,0 -8.10189,1.45117 -10.76953,4.35156 -2.64974,2.88249 -3.97461,6.78549 -3.97461,11.70899 0,4.76237 1.39649,8.53906 4.18945,11.33203 2.81088,2.79297 6.61589,4.18945 11.41406,4.18945 1.9157,0 3.80404,-0.19596 5.66602,-0.58984 1.86198,-0.39389 3.68066,-0.9668 5.45313,-1.71875 v -4.67383 c -1.75456,0.93099 -3.528,1.63021 -5.31836,2.0957 -1.77247,0.4655 -3.60808,0.69727 -5.50586,0.69727 -3.27637,0 -5.83562,-0.88574 -7.67969,-2.6582 -1.82617,-1.79037 -2.84766,-4.38738 -3.0625,-7.78907 h 22.7207 v -2.41601 c 0,-4.47591 -1.18164,-8.01139 -3.54492,-10.60742 -2.34537,-2.61394 -5.54166,-3.92188 -9.58789,-3.92188 z m 36.14844,0 c -2.38119,0 -4.40528,0.44856 -6.07032,1.34375 -1.66503,0.87728 -3.01627,2.22852 -4.05468,4.05469 v -4.67383 h -4.96875 V 294.5 h 4.96875 v -15.84375 c 0,-3.4017 0.74251,-6.00619 2.22851,-7.81446 1.50391,-1.82617 3.65234,-2.74023 6.44531,-2.74023 0.78776,0 1.50392,0.0811 2.14844,0.24219 0.66244,0.14322 1.27116,0.37499 1.82617,0.69726 l -0.0273,-5.07422 c -0.5013,-0.0895 -0.95735,-0.15365 -1.36914,-0.18945 -0.41179,-0.0537 -0.78679,-0.0801 -1.12695,-0.0801 z M 72.429689,264.42187 83.708989,294.5 h 6.71289 l 11.279291,-30.07813 h -5.236321 l -9.39844,25.24414 -9.40039,-25.24414 z m 132.048831,3.41211 c 2.61393,0 4.66243,1.03841 6.14843,3.11523 1.50391,2.05892 2.25586,4.90463 2.25586,8.53907 0,3.63444 -0.75195,6.48958 -2.25586,8.5664 -1.486,2.05892 -3.5345,3.08985 -6.14843,3.08985 -2.61394,0 -4.67383,-1.03093 -6.17774,-3.08985 -1.486,-2.07682 -2.22851,-4.93196 -2.22851,-8.5664 0,-3.63444 0.74251,-6.48015 2.22851,-8.53907 1.50391,-2.07682 3.5638,-3.11523 6.17774,-3.11523 z m -149.693363,0.0527 c 2.434893,0 4.387369,0.80665 5.855468,2.41797 1.486004,1.61133 2.245444,3.76725 2.28125,6.47071 l -17.617187,0.0273 c 0.250651,-2.82877 1.200521,-5.02246 2.847656,-6.58008 1.665039,-1.55761 3.875647,-2.33594 6.632813,-2.33594 z m 66.386723,0 c 2.43489,0 4.38736,0.80665 5.85547,2.41797 1.486,1.61133 2.24545,3.76725 2.28124,6.47071 l -17.61718,0.0273 c 0.25064,-2.82877 1.20051,-5.02246 2.84765,-6.58008 1.66504,-1.55761 3.87565,-2.33594 6.63282,-2.33594 z m 48.125,0 c 2.63183,0 4.7181,1.04786 6.25781,3.14258 1.53971,2.07682 2.30859,4.89616 2.30859,8.45899 0,3.58072 -0.76888,6.40951 -2.30859,8.48632 -1.53971,2.07682 -3.62598,3.11524 -6.25781,3.11524 -2.66765,0 -4.77084,-1.02897 -6.31055,-3.08789 -1.52181,-2.07682 -2.2832,-4.91504 -2.2832,-8.51367 0,-3.59864 0.77083,-6.42741 2.31054,-8.48633 1.53972,-2.07682 3.63347,-3.11524 6.28321,-3.11524 z m 69.55664,0 c 2.43489,0 4.38541,0.80665 5.85351,2.41797 1.48602,1.61133 2.24741,3.76725 2.28321,6.47071 l -17.61719,0.0273 c 0.25065,-2.82877 1.19857,-5.02246 2.8457,-6.58008 1.66504,-1.55761 3.87761,-2.33594 6.63477,-2.33594 z m 753.79885,13.00391 v 41.25 h 13.75003 v -41.25 z m 2970.98043,13.14063 v 41.25 h 13.75 v -41.25 z M 321.02149,306.15039 c -9.121,0 -18.24229,1.65062 -27.36329,4.14062 -11.608,3.32 -23.21493,9.11977 -32.33593,15.75977 -4.146,3.31 -6.63282,8.28976 -6.63282,13.25976 v 33.16992 h 132.66602 v -33.16992 c 0,-4.97 -2.48681,-9.94976 -6.63281,-13.25976 -9.121,-7.47 -20.72889,-12.43977 -32.33789,-15.75977 -8.291,-2.49 -17.41328,-4.14062 -27.36328,-4.14062 z m 671.63088,29.74023 v 41.25 h 13.75003 v -41.25 z m 2970.98043,13.14063 v 41.25 h 13.75 v -41.25 z M 313.64649,384.5 v 80.00976 h -13.75 l 20.625,41.25 20.625,-41.25 h -13.75 V 384.5 Z m 679.00588,6.39062 v 41.25 h 13.75003 v -41.25 z m 2970.98043,13.14063 v 41.25 h 13.75 v -41.25 z M 992.65237,445.89062 v 17.71875 h -13.75 l 20.6191,41.25 20.63093,-41.25 h -13.75 v -17.71875 z m 2970.98043,13.14063 v 41.25 h 13.75 v -41.25 z m -1801.3437,79.79882 v 33.55079 H 2243.75 V 538.83007 Z M 3624.0879,546.75 v 6.08984 h 6.0996 V 546.75 Z m 11.9903,0 v 6.08984 h 5.8886 V 546.75 Z m 11.7793,0 v 6.08984 h 5.8906 V 546.75 Z m 11.58,0 v 6.08984 h 5.8907 V 546.75 Z m 11.3692,0 v 6.08984 h 6.0996 V 546.75 Z m -2495.3653,0.81054 v 3.79102 h 3.7911 v -3.79102 z m 7.5801,0 v 3.79102 h 3.791 v -3.79102 z m 7.5801,0 v 3.79102 h 3.8008 v -3.79102 z m 7.5898,0 v 3.79102 h 3.7911 v -3.79102 z m 7.5801,0 v 3.79102 h 3.791 v -3.79102 z m 7.5801,0 v 3.79102 h 3.791 v -3.79102 z m 7.5898,0 v 3.79102 h 3.7911 v -3.79102 z m -45.5,7.58985 v 3.79101 h 3.7911 v -3.79101 z m 45.5,0 v 3.79101 h 3.7911 v -3.79101 z m -151.6699,3.75 c -4.18,0.02 -7.5701,3.39984 -7.5801,7.58984 v 5.7207 h 3.7911 v -5.7207 c 0,-2.1 1.699,-3.79883 3.789,-3.79883 h 100.4805 v -3.79101 z m 115.6504,0 v 3.79101 h 20.8496 c 2.09,0 3.791,1.69883 3.791,3.79883 v 20.89063 h 3.7891 v -20.89063 c -0.01,-4.19 -3.4001,-7.56984 -7.5801,-7.58984 z m 2439.166,0.041 v 6.08985 h 6.0996 v -6.08985 z m 46.7188,0 v 6.08985 h 6.0996 v -6.08985 z m 234.9101,0.36914 c -13.41,0 -24.2793,10.88102 -24.2793,24.29102 0,13.41 10.8693,24.2793 24.2793,24.2793 13.41,0 24.2813,-10.8693 24.2813,-24.2793 0,-13.41 -10.8713,-24.29102 -24.2813,-24.29102 z m 129.5,0 c -13.41,0 -24.2793,10.88102 -24.2793,24.29102 0,13.41 10.8693,24.2793 24.2793,24.2793 13.41,0 24.2813,-10.8693 24.2813,-24.2793 0,-13.41 -10.8713,-24.29102 -24.2813,-24.29102 z m -522.8398,1.66016 c -4.47,0 -8.1289,3.64914 -8.1289,8.11914 v 4.07031 h 115.7793 v -12.18945 z m 121.8711,0 v 12.18945 h 20.3086 v 18.28125 h 12.1914 v -22.35156 c 0,-4.47 -3.6611,-8.11914 -8.1211,-8.11914 z m -2458.8067,1.75976 v 3.79102 h 3.7911 v -3.79102 z m 45.5,0 v 3.79102 h 3.7911 v -3.79102 z m -727.05468,3.6504 c -8.003,0 -14.788,5.55906 -16.875,13.03906 -3.132,-4.69 -8.35045,-7.83008 -14.43945,-7.83008 -9.568,0 -17.39649,7.83039 -17.39649,17.40039 0,1.39 0.17544,2.61 0.52344,4 -1.392,-0.35 -2.60995,-0.51953 -4.00195,-0.51953 -9.568,0 -17.39649,7.83062 -17.39649,17.39062 0,9.57 7.82849,17.39844 17.39649,17.39844 h 0.17382 c 0.87001,8.87 8.35066,15.66016 17.22266,15.66016 4.001,0 7.65433,-1.39016 10.61133,-3.66016 0,0.53 -0.17383,1.21992 -0.17383,1.91992 0,9.56 7.82653,17.39063 17.39453,17.39063 9.046,0 16.52649,-6.96008 17.39649,-15.83008 3.131,4.35 8.17697,7.14061 13.91797,7.14063 9.567,0 17.39648,-7.8304 17.39648,-17.4004 v -1.57031 c 2.087,0.87 4.52103,1.57031 6.95703,1.57031 9.568,0 17.39649,-7.83039 17.39649,-17.40039 0,-9.56 -7.82849,-17.38867 -17.39649,-17.38867 -1.392,0 -2.60995,0.16953 -4.00195,0.51953 0.348,-1.22 0.52344,-2.61 0.52344,-4 0,-9.57 -7.82849,-17.40039 -17.39649,-17.40039 -4.001,0 -7.82715,1.39016 -10.78516,3.66016 -1.39098,-8.01 -8.52387,-14.08988 -17.04687,-14.08984 z m 577.28518,2 v 3.83007 l 98.5801,-0.0312 v -3.79882 z m 113.75,0 v 3.79882 h 15.1699 v 15.20118 h 3.791 v -15.20118 -3.79882 h -3.791 z m -9.4805,1.92968 v 3.79102 h 3.7911 v -3.79102 z m 45.5,0 v 3.79102 h 3.7911 v -3.79102 z m 2403.1465,0.81055 v 6.09961 h 6.0996 v -6.09961 z m 46.7188,0 v 6.09961 h 6.0996 v -6.09961 z m -763.2539,0.0312 c -17.3774,-0.27534 -34.7384,6.96367 -46.8907,21.29883 -0.093,0.10946 -0.185,0.21971 -0.2773,0.33008 -1.4322,1.7076 -1.2164,4.25764 0.4824,5.69726 1.6988,1.43961 4.2358,1.22323 5.668,-0.48437 18.4634,-22.10562 51.2108,-25.10087 73.3418,-6.70899 l -7.2188,0.0605 c -2.221,0 -4.0214,1.80881 -4.0215,4.04101 0,2.23221 1.8005,4.04297 4.0215,4.04297 h 16.5254 c 0.154,0.01 0.3089,0.01 0.4629,0 0.774,2e-4 1.5289,-0.23313 2.1699,-0.66797 l 0.2832,-0.18164 0.1192,-0.10156 0.2617,-0.20117 c 0.787,-0.75418 1.2371,-1.79759 1.2461,-2.89063 v -17.13476 c 0,-2.2322 -1.7985,-4.04297 -4.0195,-4.04297 -2.22,0 -4.0215,1.81077 -4.0215,4.04297 v 7.375 c -11.0924,-9.50076 -24.6171,-14.26046 -38.1328,-14.47461 z m -1857.2403,6.74805 v 39.81054 h 49.2891 v -39.81054 z m 125.1289,0 v 3.79101 h 3.7911 v -3.79101 z m 45.5,0 v 3.79101 h 3.7911 v -3.79101 z m 2269.086,1.34961 v 42.66015 h 54.8496 v -42.66015 z m -2435.9258,2.4414 h 41.7109 v 32.22852 h -41.7109 z m 1144.1269,0.26953 v 22.75977 l -10.7792,10.7793 h -61.0997 v 43.12109 h 9.5899 v -33.54102 h 51.5098 l 10.7792,10.78125 v 22.75977 h 9.5801 v -22.75977 l 10.7813,-10.78125 h 51.5097 v 33.54102 h 9.5899 v -43.12109 h -61.0996 l -10.7813,-10.7793 v -22.75977 z m 1425.8594,1.34961 v 6.09961 h 6.0996 v -6.09961 z m 46.7188,0 v 6.09961 h 6.0996 v -6.09961 z m -174.6797,2.0293 h 42.6504 v 30.4707 h -42.6504 z m -2358.6055,0.14062 c -14.66,0 -26.539,11.88102 -26.539,26.54102 0.01,14.65 11.889,26.52906 26.539,26.53906 14.66,0 26.541,-11.87906 26.541,-26.53906 0,-14.66 -11.881,-26.54102 -26.541,-26.54102 z m 37.9199,0 v 3.79102 h 3.7911 v -3.79102 z m 45.5,0 v 3.79102 h 3.7911 v -3.79102 z m -157.3593,3.79102 v 3.78906 h 22.75 v -3.78906 z m 73.9394,0 c 12.54,-0.02 22.73,10.12969 22.75,22.67969 0.01,5.74 -2.1603,11.26851 -6.0703,15.47851 -1.19,-5.53 -5.0393,-10.11976 -10.2793,-12.25976 3.86,-3.53 4.1201,-9.52867 0.5898,-13.38867 -3.5393,-3.86 -9.5403,-4.11985 -13.4003,-0.58985 -3.86,3.54 -4.1201,9.52844 -0.5801,13.39844 0.18,0.2 0.3801,0.40008 0.5801,0.58008 -5.24,2.14 -9.0796,6.72976 -10.2696,12.25976 -8.54,-9.19 -7.9988,-23.55961 1.2012,-32.09961 4.2,-3.9 9.7385,-6.06859 15.4785,-6.05859 z m 2447.9766,0.13867 c -16.25,0 -29.4512,13.20117 -29.4512,29.45117 0,16.25 13.2012,29.44922 29.4512,29.44922 16.25,0 29.4492,-13.19922 29.4492,-29.44922 0,-16.25 -13.1992,-29.45117 -29.4492,-29.45117 z m -81.25,1.00977 v 6.10156 h 24.3789 v -6.10156 z m -2328.8067,2.64062 v 3.79102 h 3.7911 v -3.79102 z m 7.5801,0 v 3.79102 h 3.791 v -3.79102 z m 7.5801,0 v 3.79102 h 3.8008 v -3.79102 z m 7.5898,0 v 3.79102 h 3.7911 v -3.79102 z m 7.5801,0 v 3.79102 h 3.791 v -3.79102 z m 7.5801,0 v 3.79102 h 3.791 v -3.79102 z m 7.5898,0 v 3.79102 h 3.7911 v -3.79102 z m 2403.1465,2.43946 v 6.08984 h 6.0996 v -6.08984 z m 11.9903,0 v 6.08984 h 5.8886 v -6.08984 z m 11.7793,0 v 6.08984 h 5.8906 v -6.08984 z m 11.58,0 v 6.08984 h 5.8907 v -6.08984 z m 11.3692,0 v 6.08984 h 6.0996 v -6.08984 z m 299.6601,1.58984 c -13.41,0 -24.2793,10.87125 -24.2793,24.28125 0,13.41 10.8693,24.2793 24.2793,24.2793 13.41,0 24.2813,-10.8693 24.2813,-24.2793 0,-13.41 -10.8713,-24.28125 -24.2813,-24.28125 z m -2906.8847,3.56055 v 3.79101 h 15.1699 v -3.79101 z m 2521.916,0.13086 c 4.47,0 8.3301,3.66007 8.3301,8.33007 0,4.47 -3.6601,8.33008 -8.3301,8.33008 -4.47,0 -8.3301,-3.66008 -8.3301,-8.33008 0,-4.67 3.6601,-8.33007 8.3301,-8.33007 z m -2447.9766,1.75976 c 3.14,0 5.6914,2.54945 5.6914,5.68945 0,3.14 -2.5514,5.68946 -5.6914,5.68946 -3.14,0 -5.6894,-2.54946 -5.6894,-5.68946 0,-3.14 2.5494,-5.68945 5.6894,-5.68945 z m 62.5703,0 v 49.2793 h -125.1289 v -28.41992 h -3.791 v 28.41992 3.80078 h 3.791 125.1289 3.791 v -3.80078 -49.2793 z m 9.4707,0 v 54.98047 c 0,2.09 -1.701,3.78906 -3.791,3.78906 h -136.5 c -2.09,0 -3.789,-1.69906 -3.789,-3.78906 v -34.12109 h -3.7911 v 34.12109 c 0.01,4.18 3.4001,7.57008 7.5801,7.58008 h 54.9805 v 18.95898 h -20.8496 v 3.79102 h 68.2402 v -3.79102 H 1150.793 V 665.1015 h 54.9785 c 4.18,-0.01 7.5701,-3.40008 7.5801,-7.58008 v -54.98047 z m 2294.6856,0.0703 v 6.08985 h 16.25 v -6.08985 z m -413.6406,2.5 -0.037,13.75196 -87.5839,-0.23242 -0.039,13.75 87.5879,0.23242 -0.037,13.74804 41.3086,-20.52148 z m 563.9492,0.54883 v 56.8711 h -138.1192 v -32.5 h -12.1894 v 36.55859 c 0,4.47 3.6589,8.13086 8.1289,8.13086 h 56.8711 v 12.18945 h -20.3106 v 12.17969 h 73.1192 v -12.17969 h -20.3086 v -12.18945 h 56.8789 c 4.46,0 8.1211,-3.66086 8.1211,-8.13086 v -60.92969 z m -2963.74615,0.35352 0.0449,13.75 -67.35547,0.22265 0.0449,13.75 67.35743,-0.22265 0.0449,13.74804 41.18164,-20.75976 z m 644.34185,0.73633 -0.1797,13.75195 -67.3613,-0.87109 -0.1797,13.74023 67.3593,0.87891 -0.1796,13.75 41.5214,-20.08985 z m 1115.4551,0.36132 -0.037,13.75 -87.5839,-0.24023 -0.039,13.75 87.5879,0.24023 -0.037,13.75 41.3086,-20.52148 z m 403.666,0.73633 c -0.7878,-0.0515 -1.5799,0.13016 -2.2735,0.53321 l -14.8769,8.6289 c -1.9676,1.03473 -2.7285,3.47729 -1.6992,5.45508 1.0294,1.97799 3.4601,2.74176 5.4277,1.70703 0.1002,-0.0525 0.1977,-0.1089 0.293,-0.16992 l 6.1523,-3.57617 c -0.7155,3.75676 -1.0793,7.57167 -1.0859,11.39648 -0.091,29.61632 21.1927,54.93239 50.2597,59.77734 h 0.6836 c 2.2207,0.17892 4.1641,-1.48624 4.3418,-3.71874 0.1777,-2.23253 -1.4785,-4.18733 -3.6992,-4.36524 l 0.082,0.12109 c -25.2187,-4.17351 -43.7003,-26.12436 -43.6269,-51.81445 0.038,-3.182 0.3606,-6.35276 0.9648,-9.47656 h 0.1621 l 3.6778,6.40625 c 1.1104,1.93638 3.5717,2.60042 5.498,1.48437 1.9264,-1.11615 2.5888,-3.59096 1.4785,-5.52734 l -8.5449,-14.85156 c -0.5319,-0.92497 -1.4055,-1.60222 -2.4316,-1.88086 -0.2579,-0.0697 -0.5206,-0.11175 -0.7832,-0.12891 z m 105.2031,0.18945 c -0.5222,-0.0225 -1.0576,0.0586 -1.5781,0.25391 -2.082,0.78122 -3.1394,3.11055 -2.3614,5.20313 10.066,27.19635 -3.7066,57.44725 -30.7636,67.5664 -0.192,0.0724 -0.3861,0.14354 -0.5801,0.21289 l 3.6601,-6.42773 c 1.111,-1.94201 0.4438,-4.42035 -1.4882,-5.53711 -1.932,-1.11575 -4.3978,-0.44592 -5.5078,1.49609 l -8.4434,14.89453 c -1.104,1.93598 -0.4407,4.40491 1.4863,5.51563 l 14.8184,8.50781 c 1.932,1.11676 4.3978,0.44692 5.5078,-1.49609 1.111,-1.94201 0.4437,-4.41941 -1.4883,-5.53516 l -6.2715,-3.57812 c 24.257,-8.45859 40.4812,-31.48333 40.3692,-57.29102 0.01,-7.22132 -1.2658,-14.3862 -3.7598,-21.1582 -0.5835,-1.56944 -2.0331,-2.55945 -3.5996,-2.62696 z m -756.457,0.27344 11.9804,11.98047 -11.9804,11.98047 -11.9805,-11.98047 z m 1553.3574,0.89063 -41.4102,20.29883 41.0899,20.95117 0.1074,-13.75586 84.834,0.66601 0.1094,-13.75 -84.8379,-0.66601 z m 149.3398,5.15039 c -6.47,0 -13.489,1.07828 -19.959,3.23828 -8.64,2.7 -16.73,6.47008 -23.75,11.33008 -3.23,2.16 -4.8515,5.94094 -4.8515,9.71094 v 24.27929 h 58.2715 c 1.62,-2.15 2.6993,-3.22961 4.8593,-4.84961 7.55,-5.4 16.1904,-9.71015 24.8204,-12.41015 -5.94,-6.48 -9.711,-14.57024 -9.711,-23.74024 V 620.83 c -3.24,-1.08 -6.4787,-2.70023 -9.7187,-3.24023 -5.93,-1.62 -12.951,-3.23828 -19.961,-3.23828 z m 129.5,0 c -6.47,0 -13.489,1.07828 -19.959,3.23828 -3.24,1.08 -6.4807,2.16125 -9.7207,3.78125 v 0.53906 c 0,9.17 -3.7689,17.80024 -9.7089,23.74024 10.25,3.24 18.3483,7.55015 24.8183,12.41015 1.62,1.62 3.2403,2.69961 4.3203,4.84961 h 58.8106 v -24.27929 c 0,-3.77 -1.6196,-7.55094 -4.8496,-9.71094 -6.48,-5.4 -15.11,-9.17008 -23.75,-11.33008 -5.93,-1.62 -12.951,-3.23828 -19.961,-3.23828 z m -2897.1953,3.38867 c 6.93,0.26 12.48,5.81023 12.75,12.74023 -7.91,5.72 -18.59,5.72 -26.5,0 0.28,-7.32 6.44,-13.02023 13.75,-12.74023 z m 2447.4766,1.73047 c 2.24,0 4.6682,0.39976 6.9082,1.00976 2.84,0.82 5.6811,2.03938 8.1211,3.85938 0.82,0.82 1.4199,2.03 1.4199,3.25 v 6.30078 h -33.0996 v -6.30078 c 0,-1.22 0.5991,-2.43 1.6191,-3.25 2.44,-1.82 5.0811,-3.03938 8.1211,-3.85938 2.24,-0.61 4.4702,-1.00976 6.9102,-1.00976 z m -2414.9551,2.0293 c -0.34,0.02 -0.6206,0.30062 -0.6406,0.64062 v 0.16016 l 6.209,19.10937 c 0.16,0.29 0.4607,0.48066 0.8007,0.47071 0.16,0 0.3205,-0.16071 0.4805,-0.47071 l 2.3789,-6.50976 c 0,0 0.022,-0.01 0.022,0 h 0.01 l 7.4589,7.45117 3.3399,-3.3418 -7.459,-7.45898 c -0.01,-0.01 -0.01,-0.0193 0,-0.0293 l 6.5195,-2.38086 c 0.29,-0.16 0.4707,-0.47078 0.4707,-0.80078 0,-0.16 -0.1604,-0.31852 -0.4804,-0.47852 l -18.9512,-6.36132 z m 2450.5039,6.5 c -0.41,0 -0.8105,0.41054 -0.8105,0.81054 v 0.21094 l 7.9199,24.36914 c 0.2,0.41 0.6117,0.60938 1.0117,0.60938 0.21,0 0.4094,-0.19938 0.6094,-0.60938 l 3.0508,-8.33008 9.5488,9.55078 4.2597,-4.27148 -9.5488,-9.53906 8.3301,-3.05078 c 0.41,-0.2 0.6094,-0.60954 0.6094,-1.01954 0,-0.2 -0.1994,-0.39937 -0.6094,-0.60937 l -24.1699,-8.12109 z m 349.4199,24.12109 c -6.47,0 -13.489,1.08023 -19.959,3.24023 -8.64,2.16 -16.73,6.48008 -23.75,11.33008 -3.23,2.7 -4.8515,5.93899 -4.8515,9.70899 v 24.29101 h 97.1211 v -24.29101 c 0,-3.77 -1.6196,-7.54899 -4.8496,-9.70899 -6.48,-5.39 -15.11,-9.17008 -23.75,-11.33008 -5.93,-1.62 -12.951,-3.24023 -19.961,-3.24023 z m -3511.37305,2.96875 c -5.765,0 -10.4375,4.68141 -10.4375,10.44141 0,5.77 4.6725,10.43945 10.4375,10.43945 5.764,0 10.4375,-4.66945 10.4375,-10.43945 0,-5.76 -4.6735,-10.44141 -10.4375,-10.44141 z m 668.94925,10.01172 h 18.959 v 18.95898 h -18.959 z m 1003.0957,0.70898 c -7.93,0 -14.3691,6.44086 -14.3691,14.38086 0,7.94 6.4391,14.36914 14.3691,14.36914 7.94,0 14.3809,-6.42914 14.3809,-14.36914 0,-7.94 -6.4409,-14.38086 -14.3809,-14.38086 z m 71.8809,0 c -7.94,0 -14.3809,6.44086 -14.3809,14.38086 0,7.94 6.4409,14.36914 14.3809,14.36914 7.94,0 14.3789,-6.42914 14.3789,-14.36914 0,-7.94 -6.4389,-14.38086 -14.3789,-14.38086 z m 71.8789,0 c -7.94,0 -14.3789,6.44086 -14.3789,14.38086 0,7.94 6.4389,14.36914 14.3789,14.36914 7.93,0 14.3711,-6.42914 14.3711,-14.36914 0,-7.94 -6.4411,-14.38086 -14.3711,-14.38086 z M 438.21875,675.9707 c -4.324,0 -7.82812,3.50008 -7.82812,7.83008 0,4.32 3.50412,7.83003 7.82812,7.83008 4.323,0 7.82813,-3.51008 7.82813,-7.83008 0,-4.33 -3.50513,-7.83008 -7.82813,-7.83008 z m 3485.12895,79.43555 v 25.02933 c 0,5.2278 1.289,9.1741 3.8672,11.8418 2.596,2.6676 6.4274,4.0019 11.4941,4.0019 5.0488,0 8.8613,-1.3343 11.4395,-4.0019 2.596,-2.6677 3.8945,-6.614 3.8945,-11.8418 v -25.02933 h -5.4512 v 24.35743 c 0,4.2969 -0.7783,7.3933 -2.3359,9.291 -1.5577,1.8799 -4.0736,2.8203 -7.5469,2.8203 -3.4912,0 -6.0165,-0.9404 -7.5742,-2.8203 -1.5576,-1.8977 -2.3359,-4.9941 -2.3359,-9.291 v -24.35743 z m 50.2187,9.29103 c -3.6882,0 -6.5338,0.7708 -8.539,2.3105 -2.0052,1.5398 -3.0078,3.724 -3.0078,6.5528 0,2.3274 0.6803,4.1611 2.041,5.5039 1.3606,1.3248 3.5713,2.3105 6.6328,2.955 l 1.7187,0.4024 c 3.0616,0.6625 5.0405,1.3522 5.9356,2.0683 0.9131,0.7164 1.3691,1.7451 1.3691,3.0879 0,1.4502 -0.6256,2.5791 -1.8789,3.3848 -1.2532,0.7877 -3.0436,1.1816 -5.3711,1.1816 -1.7366,0 -3.4912,-0.2337 -5.2636,-0.6992 -1.7725,-0.4834 -3.5723,-1.1995 -5.3985,-2.1484 v 5.1035 c 1.9336,0.6266 3.7693,1.0921 5.5059,1.3965 1.7546,0.3223 3.4375,0.4824 5.0488,0.4824 3.8672,0 6.9014,-0.8141 9.1035,-2.4433 2.2201,-1.6292 3.3301,-3.8399 3.3301,-6.6329 0,-2.4528 -0.7425,-4.36 -2.2285,-5.7207 -1.4681,-1.3786 -3.9577,-2.4433 -7.4668,-3.1953 l -1.6914,-0.3769 c -2.6498,-0.5908 -4.4138,-1.209 -5.291,-1.8535 -0.8773,-0.6625 -1.3164,-1.5652 -1.3164,-2.711 0,-1.5039 0.6087,-2.6328 1.8261,-3.3847 1.2354,-0.752 3.0804,-1.127 5.5332,-1.127 1.6114,0 3.168,0.179 4.6719,0.5371 1.5039,0.3581 2.9551,0.8952 4.3516,1.6113 v -4.6738 c -1.3607,-0.5371 -2.8477,-0.9404 -4.459,-1.209 -1.6113,-0.2686 -3.3301,-0.4023 -5.1563,-0.4023 z m 31.6895,0 c -4.5117,0 -8.1,1.4511 -10.7676,4.3515 -2.6497,2.8825 -3.9746,6.7855 -3.9746,11.709 0,4.7624 1.3965,8.5391 4.1895,11.3321 2.8108,2.793 6.6139,4.1894 11.4121,4.1894 1.9156,0 3.8059,-0.1959 5.6679,-0.5898 1.862,-0.3939 3.6787,-0.9668 5.4512,-1.7188 v -4.6738 c -1.7546,0.931 -3.528,1.6302 -5.3184,2.0957 -1.7724,0.4655 -3.6061,0.6973 -5.5039,0.6973 -3.2763,0 -5.8375,-0.8858 -7.6816,-2.6582 -1.8261,-1.7904 -2.8457,-4.3874 -3.0605,-7.7891 h 22.7187 v -2.416 c 0,-4.4759 -1.1817,-8.0114 -3.5449,-10.6074 -2.3454,-2.614 -5.5416,-3.9219 -9.5879,-3.9219 z m 36.1484,0 c -2.3812,0 -4.4052,0.4485 -6.0703,1.3437 -1.665,0.8773 -3.0163,2.2285 -4.0547,4.0547 v -4.6738 h -4.9687 v 30.0781 h 4.9687 v -15.8437 c 0,-3.4017 0.7425,-6.0062 2.2285,-7.8145 1.5039,-1.8262 3.6524,-2.7402 6.4454,-2.7402 0.7877,0 1.5039,0.081 2.1484,0.2422 0.6625,0.1432 1.2712,0.375 1.8262,0.6972 l -0.025,-5.0742 c -0.5013,-0.089 -0.9593,-0.1515 -1.3711,-0.1875 -0.4118,-0.054 -0.7868,-0.082 -1.127,-0.082 z m 17.2676,0 c -3.6882,0 -6.5339,0.7708 -8.5391,2.3105 -2.0052,1.5398 -3.0078,3.724 -3.0078,6.5528 0,2.3274 0.6804,4.1611 2.041,5.5039 1.3607,1.3248 3.5713,2.3105 6.6329,2.955 l 1.7187,0.4024 c 3.0615,0.6625 5.0404,1.3522 5.9356,2.0683 0.9131,0.7164 1.3691,1.7451 1.3691,3.0879 0,1.4502 -0.6276,2.5791 -1.8809,3.3848 -1.2532,0.7877 -3.0436,1.1816 -5.3711,1.1816 -1.7366,0 -3.4912,-0.2337 -5.2636,-0.6992 -1.7725,-0.4834 -3.5704,-1.1995 -5.3965,-2.1484 v 5.1035 c 1.9335,0.6266 3.7672,1.0921 5.5039,1.3965 1.7546,0.3223 3.4375,0.4824 5.0488,0.4824 3.8672,0 6.9033,-0.8141 9.1055,-2.4433 2.22,-1.6292 3.3301,-3.8399 3.3301,-6.6329 0,-2.4528 -0.7445,-4.36 -2.2305,-5.7207 -1.4681,-1.3786 -3.9557,-2.4433 -7.4648,-3.1953 l -1.6915,-0.3769 c -2.6495,-0.5908 -4.4137,-1.209 -5.291,-1.8535 -0.8772,-0.6625 -1.3164,-1.5652 -1.3164,-2.711 0,-1.5039 0.6088,-2.6328 1.8262,-3.3847 1.2354,-0.752 3.0804,-1.127 5.5332,-1.127 1.6113,0 3.168,0.179 4.6719,0.5371 1.5039,0.3581 2.9551,0.8952 4.3515,1.6113 v -4.6738 c -1.3606,-0.5371 -2.8476,-0.9404 -4.4589,-1.209 -1.6114,-0.2686 -3.3302,-0.4023 -5.1563,-0.4023 z m -53.3613,4.1894 c 2.4349,0 4.3854,0.8067 5.8535,2.418 1.4858,1.6113 2.2472,3.7673 2.2832,6.4707 l -17.6172,0.027 c 0.2506,-2.8289 1.2005,-5.0225 2.8477,-6.5801 1.665,-1.5576 3.8756,-2.336 6.6328,-2.336 z" />
</svg>
