<?xml version="1.0" encoding="UTF-8" standalone="no"?>
<!-- Created with Inkscape (http://www.inkscape.org/) -->

<svg
   width="197.05519mm"
   height="197.05519mm"
   viewBox="0 0 197.05519 197.05519"
   version="1.1"
   id="svg5"
   inkscape:version="1.1.2 (0a00cf5339, 2022-02-04)"
   sodipodi:docname="sun.svg"
   xmlns:inkscape="http://www.inkscape.org/namespaces/inkscape"
   xmlns:sodipodi="http://sodipodi.sourceforge.net/DTD/sodipodi-0.dtd"
   xmlns="http://www.w3.org/2000/svg"
   xmlns:svg="http://www.w3.org/2000/svg">
  <sodipodi:namedview
     id="namedview7"
     pagecolor="#ffffff"
     bordercolor="#666666"
     borderopacity="1.0"
     inkscape:pageshadow="2"
     inkscape:pageopacity="0.0"
     inkscape:pagecheckerboard="0"
     inkscape:document-units="mm"
     showgrid="false"
     inkscape:snap-bbox="true"
     inkscape:snap-bbox-midpoints="true"
     inkscape:zoom="0.64052329"
     inkscape:cx="123.33666"
     inkscape:cy="507.39763"
     inkscape:window-width="1920"
     inkscape:window-height="1011"
     inkscape:window-x="0"
     inkscape:window-y="0"
     inkscape:window-maximized="1"
     inkscape:current-layer="layer1" />
  <defs
     id="defs2" />
  <g
     inkscape:label="Layer 1"
     inkscape:groupmode="layer"
     id="layer1"
     transform="translate(-10.151041,-13.997835)">
    <path
       id="main-path"
       style="fill:#ADD8E6;stroke:none;stroke-width:2.26772"
       d="m 398.03906,54.039062 c -11.87632,10e-7 -21.4375,9.561183 -21.4375,21.4375 V 238.80273 a 189.72111,189.72111 0 0 1 34.15235,-3.23046 189.72111,189.72111 0 0 1 34.15234,3.10156 V 75.476562 c 0,-11.876317 -9.56118,-21.437499 -21.4375,-21.4375 z M 172.38672,147.48633 c -5.47965,0 -10.95929,2.09991 -15.1582,6.29883 l -17.98243,17.98242 c -8.39782,8.39782 -8.39782,21.91858 0,30.3164 L 254.67188,317.50977 A 189.72111,189.72111 0 0 1 302.9707,269.21094 L 187.54492,153.78516 c -4.19891,-4.19892 -9.67856,-6.29883 -15.1582,-6.29883 z m 476.73437,0 c -5.47964,0 -10.95927,2.09991 -15.1582,6.29883 l -115.4082,115.4082 a 189.72111,189.72111 0 0 1 48.29883,48.29883 l 115.4082,-115.40821 c 8.39781,-8.39782 8.39781,-21.91858 0,-30.3164 L 664.2793,153.78516 c -4.19891,-4.19892 -9.67856,-6.29883 -15.15821,-6.29883 z M 410.75391,276.20898 A 149.08465,149.08465 0 0 0 261.66992,425.29297 149.08465,149.08465 0 0 0 410.75391,574.37695 149.08465,149.08465 0 0 0 559.83984,425.29297 149.08465,149.08465 0 0 0 410.75391,276.20898 Z M 60.9375,391.14062 c -11.87632,0 -21.4375,9.56121 -21.4375,21.4375 v 25.42969 c 0,11.87632 9.56118,21.4375 21.4375,21.4375 h 163.32617 a 189.72111,189.72111 0 0 1 -3.23047,-34.15234 189.72111,189.72111 0 0 1 3.23047,-34.15235 z m 536.4375,0 a 189.72111,189.72111 0 0 1 3.09961,34.15235 189.72111,189.72111 0 0 1 -3.23047,34.15234 h 163.32617 c 11.87632,0 21.4375,-9.56118 21.4375,-21.4375 v -25.42969 c 0,-11.87629 -9.56118,-21.4375 -21.4375,-21.4375 z M 254.67188,533.07617 139.24609,648.50195 c -8.39782,8.39781 -8.39782,21.91856 0,30.31641 l 17.98243,17.98242 c 8.39782,8.39785 21.91858,8.39785 30.3164,0 L 302.96875,581.37695 a 189.72111,189.72111 0 0 1 -48.29687,-48.30078 z m 312.16601,0.002 A 189.72111,189.72111 0 0 1 518.53906,581.377 l 115.42383,115.42383 c 8.39781,8.39785 21.9186,8.39785 30.31641,0 l 17.98242,-17.98242 c 8.39781,-8.39781 8.39781,-21.9186 0,-30.31641 z M 376.60156,611.7832 v 163.32618 c 0,11.87629 9.56118,21.43749 21.4375,21.4375 h 25.42969 c 11.87632,0 21.4375,-9.56121 21.4375,-21.4375 V 611.7832 a 189.72111,189.72111 0 0 1 -34.15234,3.23047 189.72111,189.72111 0 0 1 -34.15235,-3.23047 z"
       transform="scale(0.26458333)" />
  </g>
</svg>
